<mxfile host="app.diagrams.net" modified="2023-12-07T01:42:13.205Z" agent="Mozilla/5.0 (X11; Ubuntu; Linux x86_64; rv:120.0) Gecko/20100101 Firefox/120.0" etag="seZZwGARNHQw1eKv9x3j" version="22.1.7" type="device">
  <diagram name="Page-1" id="IbEt2GP0mYDmtRtHnrvp">
    <mxGraphModel dx="1434" dy="795" grid="1" gridSize="10" guides="1" tooltips="1" connect="1" arrows="1" fold="1" page="1" pageScale="1" pageWidth="850" pageHeight="1100" math="0" shadow="0">
      <root>
        <mxCell id="0" />
        <mxCell id="1" parent="0" />
        <mxCell id="fROxqG9AHQ-otkXeG8tQ-1" value="" style="shape=image;verticalLabelPosition=bottom;labelBackgroundColor=default;verticalAlign=top;aspect=fixed;imageAspect=0;image=data:image/png,iVBORw0KGgoAAAANSUhEUgAAAlgAAAEsCAYAAAAfPc2WAAAAOXRFWHRTb2Z0d2FyZQBNYXRwbG90bGliIHZlcnNpb24zLjUuMSwgaHR0cHM6Ly9tYXRwbG90bGliLm9yZy/YYfK9AAAACXBIWXMAAA9hAAAPYQGoP6dpAABd4ElEQVR4nO3dd3hUVf7H8ff09N5DSAKEmkh16QuIgBQFLKhYQNSVtfxALCtWUEEFV117WRS77K69g4IiVQ2EXgIEkpBG6oSUqff3xyQTQgIEmGQyyff1PPeZzJ0zd84hcOfDOeeeq1IURUEIIYQQQriM2t0VEEIIIYRoayRgCSGEEEK4mAQsIYQQQggXk4AlhBBCCOFiErCEEEIIIVxMApYQQgghhItJwBJCCCGEcDEJWEIIIYQQLiYBSwghhBDCxSRgCSGEEEK4mAQsIYQQQggXk4AlhBBCCOFiErCEEEIIIVxMApYQQgghhItJwBJCtAnLly9HpVI1ut17773urp4Qop3RursCQgjhSu+88w7du3evty8mJsZNtRFCtFcSsIQQbUpycjIDBgxw6TErKyvx8fFx6TGFEG2bDBEKIdqNr776isGDB+Pj44O/vz9jxoxh48aN9cosWLAAlUrFli1buPLKKwkODqZz584A2O12XnrpJfr06YO3tzdBQUEMGjSIr776qt4xVqxYweDBg/H19cXPz49x48axdevWemUOHTrENddcQ0xMDAaDgcjISEaPHk1aWlqz/hkIIVqGBCwhRJtis9mwWq31NoCPPvqIyZMnExAQwMcff8yyZcsoKSlh5MiRrFu3rsFxLr/8crp06cJ///tfXn/9dQBmzpzJnDlzuPDCC1mxYgWffPIJl112GYcPH3a+b/HixVx77bX07NmT//znP7z//vuUl5czfPhwdu/e7Sw3YcIEUlNTWbJkCatWreK1116jb9++lJaWNuufjxCihShCCNEGvPPOOwrQ6GYymZSYmBglJSVFsdlszveUl5crERERypAhQ5z7HnvsMQVQHn300XrHX7t2rQIoDz300CnrkJmZqWi1WuWuu+6qt7+8vFyJiopSpk2bpiiKohQWFiqA8sILL7ii6UKIVkjmYAkh2pT33nuPHj161Nt38OBBcnJymDt3Lmp1Xce9n58fV1xxBW+88UaDeVZXXHFFvWN8//33ANxxxx2n/Owff/wRq9XKjTfe6Ow5A/Dy8mLEiBGsWbMGgJCQEDp37szSpUux2WyMGjWK3r1716ubEMKzScASQrQpPXr0aDDJvXYIMDo6ukH5mJgY7HY7JSUl9QLWyWWPHTuGRqMhKirqlJ+dn58PwIUXXtjo67UBSqVS8fPPP/P444+zZMkS7rnnHkJCQrjuuutYtGgR/v7+TWipEKI1k4AlhGjzQkNDAcjNzW3wWk5ODmq1muDg4Hr7VSpVvefh4eHYbDby8vIaDWoAYWFhAPzvf/8jPj7+tHWKj49n2bJlAOzfv5///Oc/LFiwALPZ7JzzJYTwXNIfLYRo87p160ZsbCwfffQRiqI491dUVPDpp586ryw8nfHjxwPw2muvnbLMuHHj0Gq1HDx4kAEDBjS6NaZr1648/PDDpKSksGXLlnNooRCitZEeLCFEm6dWq1myZAnXXXcdkyZN4rbbbsNkMrF06VJKS0t5+umnz3iM4cOHc8MNN/Dkk0+Sn5/PpEmTMBgMbN26FR8fH+666y4SEhJ4/PHHeeihhzh06BCXXHIJwcHB5Ofn8/vvv+Pr68vChQvZvn07d955J1dddRVJSUno9XpWr17N9u3beeCBB1rgT0QI0dwkYAkh2oXp06fj6+vLU089xdVXX41Go2HQoEGsWbOGIUOGNOkYy5cvp1+/fixbtozly5fj7e1Nz549efDBB51l5s+fT8+ePfnXv/7Fxx9/jMlkIioqigsvvJDZs2cDEBUVRefOnXn11VfJyspCpVLRqVMn/vnPf3LXXXc1S/uFEC1LpZzYXy6EEEIIIc6bzMESQgghhHAxCVhCCCGEEC4mAUsIIYQQwsUkYAkhhBBCuJjHB6y1a9dy6aWXEhMTg0ql4osvvqj3+syZM1GpVPW2QYMG1StjMpm46667CAsLw9fXl8suu4zs7OwWbIUQQggh2hKPD1gVFRX07t2bl19++ZRlLrnkEnJzc53bd999V+/1uXPn8vnnn/PJJ5+wbt06jh8/zqRJk7DZbM1dfSGEEEK0QR6/Dtb48eOdKyyfisFgOOX9w8rKyli2bBnvv/8+F198MQAffPABcXFx/PTTT4wbN65J9bDb7eTk5ODv79/gFhtCCCGE8AyKolBeXk5MTMx53YDd4wNWU/zyyy9EREQQFBTEiBEjWLRoEREREQCkpqZisVgYO3ass3xMTAzJycls2LChyQErJyeHuLi4Zqm/EEIIIVpWVlYWHTp0OOf3t/mANX78eK666iri4+PJyMjgkUce4aKLLiI1NRWDwUBeXh56vb7BjV4jIyPJy8s75XFNJhMmk8n5vHa91qysLAICApqnMUIIIYRoVkajkbi4OPz9/c/rOG0+YF199dXOn5OTkxkwYADx8fF8++23XH755ad8n6Iopx3qe+qpp1i4cGGD/QEBARKwhBBCCA93vtN9PH6S+9mKjo4mPj6e9PR0wHFPMLPZTElJSb1yBQUFREZGnvI48+fPp6yszLllZWU1a72FEEII4TnaXcAqKioiKyuL6OhoAPr3749Op2PVqlXOMrm5uezcufO0N4A1GAzO3irptRJCCCHEiTx+iPD48eMcOHDA+TwjI4O0tDRCQkIICQlhwYIFXHHFFURHR3P48GEefPBBwsLCmDp1KgCBgYHcfPPN3HPPPYSGhhISEsK9995LSkqK86pCIYQQQoiz4fEB688//2TUqFHO5/PmzQNgxowZvPbaa+zYsYP33nuP0tJSoqOjGTVqFCtWrKg3ee35559Hq9Uybdo0qqqqGD16NMuXL0ej0bi0rjabDYvF4tJjtlZ6vf68Lm8VQgghPJlKqb38TZwXo9FIYGAgZWVlDYYLFUUhLy+P0tJS91TODdRqNYmJiej1endXRQghhGiy032fnw2P78HyBLXhKiIiAh8fnza/EGntoqu5ubl07NixzbdXCCGE69gVOxWWCiosFVRaKjHbzZhtZix2i/PRYrNgtpu5OP5idGqdu6vcKAlYzcxmsznDVWhoqLur02LCw8PJycnBarWi07XOv/xCCCGaX6WlkrzKPIqqiiiqLqK4qtjxWF1MUVURpaZSys3lHLcc57j5OBWWChSaNrj229W/EeQV1LwNOEcSsJpZ7ZwrHx8fN9ekZdUODdpsNglYQgjRhlVZq8g0ZpJZnknO8RxyK3LJOZ5DXkUeORU5lJnKzum4WrUWH60PBo0BnVqHXqNHq9ai1+jRq/XoNLpWPUIiAauFtOa/BM2hvbVXCCHaMkVRKKwqZH/JfjLKMjhsPMwR4xEOGw+TV3Hqu57U8tP5EeYdRohXCKHeoY5Hr1BCvUMJMgThr/fHX++Pn84PP70f/np/9Gq9R3+XSMASQgghhFO1tZqDZQfZX7yf/SX7SS9JZ3/JfkpMJad8T4A+gISABGL9YonyiyLGN4Zo32ii/aKJ9o3GX39+t53xRBKwhBBCiHbKardysPQgOwt3srNoJzsLd3Kg5ABWxdqgrFqlJj4gns6BnYkPiCchMIGEgATiA+IJMgQ1ubfJblcoqTRTUmmmrMpSt1VaKKuyUlZlodJspdpio8pio9pip9pio9pqp9psw2K3Y7Up2OwK380ZTqB365yGIgFLCCGEaCdKq0vZWrCVLQVb2H5sO3uK91BlrWpQLtgQTNeQrnQNrts6BXbCS+t12uObrXZyy6rILqkiu6SSnNJqCspNHCuvfXRsVrtrVoiy2OwuOU5zkIAlhBBCtFF5FXmk5qeyJX8LWwq2cKD0QIMyvjpfkkOT6RXWi5SwFJLDkon0iTxlj1SV2cahwuMcOlbBwWPHOVJUSXZJJdklVeQZq2nq6poBXloCfXQEetffArx1+Om1eOs1GHQavLRqvPUavLQavHQadBoVWo0anUbVanuvQAKWEEII0WaUVpfye97vbMzdyKacTWQfz25QplNgJ/pF9qNPeB9SwlNICEhArWp4540qs419+eXszTWyN6+cg8ccoepoacMerxN56dR0CPahQ7A30YHeRAYYCPc3EOHvRYS/4+cwPwN6bdu+24cELHFKU6ZM4csvv+TFF1/krrvuqvfaI488wpNPPsnf/vY33njjDTfVUAgh2jezzcyWgi1sytnExtyN7CnaU28NKY1KQ/eQ7vSP7E+/yH70jehLiFdIg+McKzex42gpu3OM7MkrZ0+ukcOFFZxqJC/IR0enMF86h/uRGO5LXLAPcSGOUBXq69lX/7mKBCxxSm+//TZ9+/blvvvuY9iwYfTt2xeAn3/+mcWLF5OcnMwLL7zg3koKIUQ7U1BZwG/Zv/Fr9q9syt3UYA5Vl6AuDIoexOCYwfSP7I+vzrfe6xUmKzuOlrEtq5Tt2WWkZZWeslcq1FdPj+gAukf5kxTpR6dwPzqH+xHiK7dBOxMJWOKUQkJC+PjjjxkxYgRXX301W7ZsobKykuuvvx4vLy9WrFiBt7e3u6sphBBtml2xs6twF79m/8ra7LXsKd5T7/Vw73AGxwxmUPQgBkUPItwnvN7ruWVV/J5RzB+Hi/nzcAn788sb9EypVNApzJfk2EB6RAfUbP6E+xmkN+ocScBqYQ98up19+eVurUO3SH+evuKCJpUdMmQITzzxBPPnz+e2227j2LFj5OXlsWzZMnr27NnMNRVCiPbJareSmp/KT0d+YnXmagqqCpyvqVCREpbCXzv8lb92+CvdQ7o7Q5CiKBw6dpzNGcX8kVHM74eLyS5p2DsVHehF7w5B9I4LondcICmxgfh7td4J455IAlYL25dfztbMUndX46z84x//4JdffuGjjz4C4Nprr2XWrFlurpUQQrQtZpuZTbmb+OnIT6zJWkOpqdT5mq/Ol6ExQxkRN4KhMUMJ9a67t21BeTUbDhSx7kAh6w8UkltWXe+4ahX0jAngwoQQ/pIQQr/4YCIDTr/cgjh/ErDEGalUKqZOncqPP/4IwNy5c91bISGEaCOsdiu/5/7Otxnf8nPmz1RYKpyvBRmCuKjjRVzc8WIGRg9Er3HMe6q22Fizr4Df9jsC1cmjInqNmr4dg/hLYggX1gQqP4N83bc0+RMXZ5Sens69995LcHAwZWVl3HrrrWzevBkvL/kfkBBCnC1FUdhRuINvD33LD4d/oLi62PlahHcEo+NHc3HHi+kX2Q+t2vE1nV1SyZq9OazZd4wNBwupttQtsKlSQa+YAIZ2CWNYlzAGxIfgrde0eLtEfRKwxGmZTCauvvpqKioq+PHHH/n1119ZtGgRd999N6+99pq7qyeEEB7jUNkhvj30Ld8d+q7e+lRBhiDGJYxjfOJ4+kb0Ra1SY7crbMksYdWefNbsLWB//vF6x4oO9GJkt3CGdQlncOdQuaqvFZKA1cK6Rbr/hpdnU4d7772XrVu38sADDzBmzBguuugifvnlF15//XVGjx7NlVde2Yw1FUIIz1ZaXco3h77hq4Nf1bv6z1vrzUUdL2JC4gQGxwxGp9ZhsdlZf6CIH3bmsXJ3PsfKTc7yahX0jw9mVPcILuoeQbdIf7m6r5VTKUpTF7UXp2M0GgkMDKSsrIyAgADn/urqajIyMkhMTPS4IbUvvviCqVOnMnjwYNauXYtW68jjWVlZ9OnTB5vNRlpaGgkJCQ3e68ntFkKI82Gz29iUu4nPD3zO6szVWOwWALQqLUNjhzIhcQIj40bio/Oh2mLjt/RCftiZx0978imrsjiP4++lZXT3CC7qEcmIpHACfeQqv5Zwqu/zsyU9WKJRmZmZzJo1i6CgID7++GNnuAKIi4vj7bffZsqUKVxzzTX89ttv6HTyD18I0b5ll2fz5cEv+eLAF+RV5Dn39wjpwdSkqYxPGE+QVxDVFhs/7yngu517WbO3gEqzzVk2zE/PmJ5RXJIcxeBOoW3+djJtmQQs0aiOHTtSXFx8ytcnT56MdH4KIdo7k83Ez0d+5rMDn7E5d7Nzf4A+gImdJnJ50uV0D+mO1WZn46Eivti6jR935XHcZHWWjQn0YlxyFJf0imJAQggatQz9tQUSsIQQQoizdPT4Uf6z7z98nv45JaYS5/5B0YOY2mUqo+NHo1fr2Z5dxsL1u/h6Wy6Fx+vmVMUGeXNp7xjGJ0dxQYdAmU/VBknAEkIIIZrArtjZlLOJj/d9zNrstdgVx1IJkT6RTE2aypQuU4j1iyWjsIJXVx/hq205ZBSesK6Vj46JKdFM6RtL/47BqKWnqk3z+IC1du1ali5dSmpqKrm5uXz++edMmTLF+bqiKCxcuJA333yTkpISBg4cyCuvvEKvXr2cZUwmE/feey8ff/wxVVVVjB49mldffZUOHTq4oUVCCCFaE6PZyJcHvmTFvhUcMR5x7h8UPYhrul3DiLgRmK3w7fZc/vvnRn4/XDe9wkunZkzPKKb0iWF4UrjMqWpHPD5gVVRU0Lt3b2666SauuOKKBq8vWbKE5557juXLl9O1a1eefPJJxowZw759+/D3dyxXMHfuXL7++ms++eQTQkNDueeee5g0aRKpqaloNLJYmxBCtEf7S/bz0Z6P+C7jO6qsjvv5+en8uKzzZVzd/WoSAxLZmlXKw5/v5uttOVTUTFZXq2BYUjhT+sQwtleUrKLeTnn8b338+PGMHz++0dcUReGFF17goYce4vLLLwfg3XffJTIyko8++ojbbruNsrIyli1bxvvvv8/FF18MwAcffEBcXBw//fQT48aNa7G2CCGEcC9FUdiQs4F3d73LxtyNzv1dgrpwbfdrmdRpEpUmDZ9vOcp//lxLekHdAqDxoT5MGxDH5f1iiQ70dkf1RSvi8QHrdDIyMsjLy2Ps2LHOfQaDgREjRrBhwwZuu+02UlNTsVgs9crExMSQnJzMhg0bJGAJIUQ7YLaZ+fbQt7y3+z0OlB4AQK1SM7rjaKZ3n06/iH5sOFjMvE/28NOefKx2x1XUXjo1E5KjuWpAHAMTQ2RelXBq0wErL8+xDklkZGS9/ZGRkRw5csRZRq/XExwc3KBM7fsbYzKZMJnqrggxGo2uqrYQQogWUlpdyop9K/h478cUVRcB4KP14fKky7mux3X4ayP5NDWb+z9Yy6ETJqz37hDIVQPiuKxPDAFesg6gaKhNB6xaJ1/+qijKGS+JPVOZp556ioULF7qkfkIIIVpWpjGT93a/x5cHvqTaVg04rga8rsd1XNH1CjKPKby88ghfpO1w3ljZz6Dl8n6xXPuXjvSIPvcVvkX70KYDVlRUFODopYqOjnbuLygocPZqRUVFYTabKSkpqdeLVVBQwJAhQ0557Pnz5zNv3jznc6PRSFxcnKubIIQQwoX2Fe/j3zv+zcojK53LLPQI6cGNvW5kZOzFrNpdyIx/72BrZqnzPd0i/blhcDxT+sbKhHXRZG36b0piYiJRUVGsWrWKvn37AmA2m/n111955plnAOjfvz86nY5Vq1Yxbdo0AHJzc9m5cydLliw55bENBgMGg6H5GyGEEOK8pRWk8daOt1ibvda5b3jscGb2mkm8bwofbsrk0Q9/o7jCDIBOo+KS5GhuGBTPhQnBshCoOGseH7COHz/OgQMHnM8zMjJIS0sjJCSEjh07MnfuXBYvXkxSUhJJSUksXrwYHx8fpk+fDkBgYCA333wz99xzD6GhoYSEhHDvvfeSkpLivKpQCCGE56m9IvDfO/7Nn/l/Ao6J6+Pix3Fzys3YqqNZ9lsGX2/7BbPN0ZsVHejFdQM7Mu3COCL85Ub14tx5fMD6888/GTVqlPN57bDdjBkzWL58Offffz9VVVXcfvvtzoVGV65c6VwDC+D5559Hq9Uybdo050Kjy5cvlzWwhBDCA9kVOz9n/sxb299iT/EeALRqLZM7T2Zmz5s4lOfFwk8z2HCw7j/n/eODuXlYImN7RqLVyGKg4vypFLljr0sYjUYCAwMpKysjIKBu8mN1dTUZGRkkJibi5dV+/jfUXtsthHAfm93GyiMreX3b6xwqOwSAt9abK7teybSk61m318Lb6zM4dMxxNaBGrWJ8chQ3D0ukb8fg0x1atCOn+j4/Wx7fgyWEEKJ9syt2R7BKe52DZQcB8Nf7M737dMZ3vIovU0uZ8uJOSistjtcMWq4d2JEZQxKIDZIFQUXzkIAlTmnv3r306NGDUaNGsXr16kbLpKSksHfvXrKyspxXbQohREuwK3ZWHVnF69tedy4O6q/358aeNzIq+nI+3nSMiZ9tcS6zEBfizayhiVw1IE6uBhTNTv6GiVPq3r07o0aNYs2aNezfv5+uXbvWe339+vXs3LmTK664QsKVEKLF1M6xem3ba6SXpAPgr/Pnhl438JeQyXywoYClK/7EVrPaekpsILNHdOaS5Cg0stK6aCESsMRp3X777axZs4Y333yTZ599tt5rb7zxBgC33XabO6omhGhnFEVhddZqXkt7jX0l+wDHzZdv6HkDvfwm8t66Ap7Zu9VZfliXMP4+sjNDOofKMguixckkdxdp8iT3r+6Cgj1urCkQ0QMue6lJRa1WK/Hx8ZjNZrKzs51rf5WUlBATE0NsbCzp6ekNTl4yyV0I4Uobczby4pYX2Vm0EwBfnS/X97ieRP143lmbz59HSgBQqWBCcjSzR3QmpUOgO6ssPJRMcvdUBXsg+w9316LJtFott956KwsXLuSzzz7j2muvBeDdd9+lurqav/3tb/I/QyFEs9l+bDsvbnmRzXmbAcdVgdf1uI4E7QSWrc1ne/ZeAPQaNVf0j+Vvf+1MYpivO6ssBCABSzTBrbfeyqJFi3jzzTedAevNN99Er9dz0003ubl2Qoi26EDJAV7a+hKrsxwX2OjUOq7qehVJ+im881shu3L2A+Ct03D9oI7cOrwTEQHSWy5aDwlY4oxiY2O57LLL+Oyzz9i3bx/5+fns2bOHa665hvDwcHdXTwjRhmSXZ/Nq2qt8c+gbFBTUKjWXdrqMHl5X8P46I2/kOda38tVruHFIArcMSyTUT25bJlofCViiSW6//XY+++wz3nzzTfLy8gCZ3C6EcJ3CqkLe3P4m/93/X6x2KwCjO44m2ecaVqw38UHBUcCxhtXMoQnMGppIsK/enVUW4rQkYLW0iB7ursE51WH06NF069aN5cuXU1FRQbdu3Rg5cqTr6yaEaFeqrFW8t+s93t75NpXWSgAGRQ9mQMB0/rtBxRcFRQD4e2mZNTSRWUMTCfTRubPKQjSJBKyW1sSr91qj2bNnc/fddwPSeyWEOD82u40vD37JK1tfoaCqAICeoT0ZFX4TX2/25akcIwCB3jpuHpbIzKEJBHhJsBKeQwKWaLIZM2Zwzz33oNfrmTFjhrurI4TwQIqisO7oOp5Lfc65+nqsXyyXxNzEr1tjeHqdETDiZ9By87BEbh6eKMFKeCQJWKLJtm7dit1u56qrriIkJMTd1RFCeJjdRbt5LvU5Nuc6llwI0AcwIe56tu9O5oU/HMHKS6dmxpAEZv+1s8yxEh5NApZosiVLlgBw5513urkmQghPkleRx7+2/ItvDn0DOJZcGNvhCrIPD+GtbyoBI3qNmukDO3L7qM5E+MtyC8LzScASp7V9+3a+/PJLUlNT+fHHH5k8eTJ/+ctf3F0tIYQHqLRU8s6ud1i+cznVtmoAhkePpTJvDJ/8aAMq0ahVTBvQgTsvSiI2yNu9FRbChSRgidPasmULjz76KAEBAVx99dW8+uqr7q6SEKKVsyt2vj30LS+kvuCcwJ4S2hff41P5fo0eRbGhUsGUPrHMGZ1Egqy8LtogCVjitGbOnMnMmTPdXQ0hhIdIK0hjyR9L2FG4A4Bonxg6a6/h502RmK2OW9+OT45i3piuJEX6u7OqQjQrCVhCCCHOW+7xXJ7f8jzfZ3wPgI/Wh95+V7AxrSf7q1SAwsDEEOZP6EGfuCC31lWIliABSwghxDmrtFTy9s63Wb5rOSabCRUq+gSPZf+eoawscVwF2C3SnwfGd2dkt3C5ObxoNyRgCSGEOGt2xc43h77hX6n/cs6z6ux/AcajE1i7JwiAmEAv5o3txtS+sWjUEqxE+yIBSwghxFnZcWwHT/3+lHOeVbhXNAbjZaT9ngCoCPTWcceoztw4OAEvncatdRXCXSRgCSGEaJLi6mL+teVffJb+GQDeGh+ilElsT0sBRYdeq+amoQncPqKL3C9QtHsSsIQQQpyW1W7lP/v+w8tpL1NuLgcg0WsEe3cPp8Dkh0oFV/bvwN1juhIja1kJAUjAEkIIcRp/5v3J4t8Xk16SDkCEoRPFRyayvSQWgKFdQnl4Yk96RAe4s5pCtDpqd1eguS1YsACVSlVvi4qKcr6uKAoLFiwgJiYGb29vRo4cya5du9xYYyGEcL/8inz+sfYf3PTjTaSXpOOjDSCg4moOpt1CSUksncJ9eXvmAD64eaCEKyEa0S56sHr16sVPP/3kfK7R1E26XLJkCc899xzLly+na9euPPnkk4wZM4Z9+/bh7y+L4Akh2heLzcL7e97n9W2vU2WtQoWKUGUEGbuHg82XIB8dd1/clekDO6LTtPn/owtxztpFwNJqtfV6rWopisILL7zAQw89xOWXXw7Au+++S2RkJB999BG33XZbS1dVCCHcZv3R9Tz9+9McNh4GIFiTRM7B8RirYtBpVMwYlsBdFyXJBHYhmqBd/PcjPT2dmJgYEhMTueaaazh06BAAGRkZ5OXlMXbsWGdZg8HAiBEj2LBhw2mPaTKZMBqN9ba2KCEhocEQ64mb3EZHCM+XV5HHvF/mMfun2Rw2HsZHHQQF15C58yasVTFc0iuKVXeP4OFJPSVcCdFEbb4Ha+DAgbz33nt07dqV/Px8nnzySYYMGcKuXbvIy8sDIDIyst57IiMjOXLkyGmP+9RTT7Fw4cJmq3drMXfuXEpLSxvs//rrr9myZQs+Pj4tXykhhEtY7BY+2vMRr6S9QpW1CjVqdBXDyc8eBXYvkmMDeHhiTwZ1CnV3VYXwOCpFURR3V6IlVVRU0LlzZ+6//34GDRrE0KFDycnJITo62lnm1ltvJSsrix9++OGUxzGZTJhMJudzo9FIXFwcZWVlBATUTfisrq4mIyODxMREvLy8mqdRLWzVqlVMmDCBhIQENm7cSFhYWIMybbHdQrQlWwu28sSmJ5xXB3rbO1N4eBJ2UzSRAQbuH9edqX1jUcsK7OJMbBaoNoLJCOYKsFQ6NnPtYwVYqsBSUbfPUgmWarCZazbLCT+fsM9qqntNsYG9Zqv9ed5u8AlxaXOMRiOBgYENvs/PVpvvwTqZr68vKSkppKenM2XKFADy8vLqBayCgoIGvVonMxgMGAyGs/78BRsWkF6aftbvc6WkoCQWDFlwTu/duXMnV155JYGBgXz33XeNhishROtVUl3Cc6nP8cWBLwDQq/wozxlHeWl/vHRabhvdmdtGdMJH3+6+Hto3SzVUFUNlUc1W83NVKZjK6gJU9Yk/1zxaKt1Xb7vNfZ99Bu3uX5DJZGLPnj0MHz6cxMREoqKiWLVqFX379gXAbDbz66+/8swzzzTL56eXprP92PZmOXZzy83NZeLEiZhMJr755huSkpLcXSUhRBPZFTufp3/O81uep8xU5thZPpCi3LFg82XSBdHMn9CDWFkotG2w26DiGBzPh+MFNY81P1cU1oSn4pogVezoXTpfOh/Q+57w6H3SPh/HY+0+rQE0BtDoan7WO37W6Ov2a/Q1mxbUWlBpQK0Bldrx6OLeK1dq8wHr3nvv5dJLL6Vjx44UFBTw5JNPYjQamTFjBiqVirlz57J48WKSkpJISkpi8eLF+Pj4MH36dHdXvVWpqKhg0qRJZGVl8eGHHzJ8+HB3V0kI0UT7ivfxxKYn2HZsGwBaayxl2Zdhr4qnR3QAj10q86w8hs0CxhwwHoXy3LrwVJ5fP0xVFoJiP7tjqzTgE+oILT6h4B3s2LwCHZshALwC6v9sqH3u7whEwqnNB6zs7GyuvfZaCgsLCQ8PZ9CgQWzatIn4+HgA7r//fqqqqrj99tspKSlh4MCBrFy5UtbAOoHdbufaa69ly5YtLFq0iGuvvdbdVRJCNEGFpYJX0l7hoz0fYVNsqPGiMu9iLCWDCfbx4p4p3bj2Lx3RyDyr1sFuc4SjsqNgzK55PApl2TWPRx2v08Sp0yo1+IaDXwT4RYFfJPiFO/b5hIJ3TZDyCXY8GgJAJX8XXKXNB6xPPvnktK+rVCoWLFjAggULWqZCHmju3Ll8/fXXzJo1iwcffNDd1RFCnIGiKPx45EeW/r6UgqoCAGzlF3A8byJqexAzh8Qz9+Ikgnz0bq5pO2O3OXqfSo9AyWEoqXkszazrkbJbz3wcjQECYhybX2TNFuF49I+s2+cT6hhGE27R5gNWa5MU5P55S2dThxdeeIGXXnqJ0aNH8/rrrzdjrYQQrpBVnsWiTYtYn7MeAJU1jIqcy7BVdGVI51Aeu7QX3aKkh75ZKApUlTQSoGofs8BuOf0xVJqa8BQLgbE1jx1OeN4BfMOkp8kDSMBqYed69Z475OXlcc8996BSqUhJSWHRokUNyvTp08d5NaYQwn2sdisf7P6AV9JeodpWjUrRUl04EnPRCDoEBfDw1B6M6xWFSr6Yz191GRQddGzFB6HoQM12yHHF3emodRAUB8EJEBRf89gRAuMcAcovUnqd2ggJWOKUqqursdsdkyRfeOGFRsvMmDFDApYQbraraBcLNyxkT/EeAGwVnajKvRwvIrnn4s7c+tdOeOnkS/usWKqgOKMuPBXXBKqiA46r807HL7J+gAqOr3seECMBqp2QgCVOKSEhgXa2Dq0QHqXSUsmraa/y/p73sSt2sHlTlT8Ra1l/Jl0Qw4MTehAjyy6cXlUpFO6HY3vh2L66rSyL004m94uE0C4Q0snxGNoFQjs7QpRe7nAhJGAJIYRHWn90PU9seoKjx48CYCnrjSl/Ep1ConjilmSGdJFFgOupKKwJT3vrHgv3OyaWn4pXYE2I6lwXoGpDlde5r/At2gcJWEII4UGKq4tZ8scSvj30LQB2SxDVuVPQm3tx/5gkbh6WiF6rdnMt3aiiEPJ3NgxTlUWnfo9/DIR3g/DuNY/dIKyr4yo8mbMmzpEELCGE8ACKovDVwa9Y+sdSysxloKgwFw/BdGws43p25NFLe7WvVdgt1VC4D/J31d8qCk79nqD4ugAV3t2xhSU5eqqEcDEJWEII0cplGbNYuGkhm3M3A2CrjqY693LifLuxYGYvRnWLcHMNm5GiONaJKtjt6JnK3+0IUkUHHDf8bUDlmFAe0bN+r1RYkuP2LEK0EAlYQgjRSlnsFt7b9R6vbXsNk82EYtdiLrwYykYwZ2Q3bhvRxq4ONFc6wlPe9rowVbDbcUPhxngFQWQyRPaCyJ6On8O7g8GvRastRGMkYAkhRCu0q3AXj214jH0l+wCwVnShOncqozr3YMGsXnQM9fAr1apKIHe7I0zVPhbub/z+eWqdoxcqomdNmKrZ/KNljpRotVwWsKxWK7/88gsHDx5k+vTp+Pv7k5OTQ0BAAH5+8r+J2vWk2gtZ3kGIc1NpqeTltJf5cPeH2LGjWH2oLphIhGooC67pxZiekZ61WKiiOG4Pc2KQyt0OZZmNl/cNh6gLICoZIlMcPVOhSaCV2/oIz+KSgHXkyBEuueQSMjMzMZlMjBkzBn9/f5YsWUJ1dXW7vsWKXq9HrVaTk5NDeHg4er3es06O50BRFI4dO4ZKpUKnk7urC9FUv2X/xhObniC3wrF0gKWsD7bCS7lt6AXcOSoJb30rHw6026H4EORtqx+mKgsbLx8UD9EXQFTvmscLwD9KeqVEm+CSgDVnzhwGDBjAtm3bCA0Nde6fOnUqt9xyiys+wmOp1WoSExPJzc0lJyfH3dVpMSqVig4dOqDRtPIvBCFagaKqIp75/Rm+P/w9AHZzMNV5UxgcPZSFd/Wic3grHAVQFEeYytlat+VuA/PxhmVVGscQX9QFdUEqKgW8g1q82kK0FJcErHXr1rF+/Xr0+vpduPHx8Rw9etQVH+HR9Ho9HTt2xGq1YrM1dtVL26PT6SRcCXEGiqLwxYEvWPLHsxy3GFEUFZbiYQSaJvLM5L5MTIluHT3eiuJY2bw2SB3dArlpjnvynUzr7ZgfVRukoi9wzJ3StaMlJITARQHLbrc3Ghyys7Px95e7tgPO4TIZMhNCAGQaM1mwYSF/5P8OgK06BnPeFdw0YBhzLu6Kn8GN1yAZc0/omdrieGxsoU6NwdETFdO3bgvrChq5fkoIl/wrGDNmDC+88AJvvvkm4AgTx48f57HHHmPChAmu+AghhGgTLHYL7+56l1fTXsNiN6PYdZiOXUyfwMt48rbedItq4f+UVhTWH+Y7ugWO5zUsp9Y6eqacYaofRPQAjfynUYjGqBQXXO6Vk5PDqFGj0Gg0pKenM2DAANLT0wkLC2Pt2rVERLThRfBqGI1GAgMDKSsrIyBA7lElhGho+7HtPLzuMTKMBwCwHk/CxziNh8YNY2rf2OYfDqwuqwtRtYGqLKthOZUawnvUBKk+jjAV2Qt0Xs1bPyFaAVd9n7skYAFUVVXx8ccfs2XLFux2O/369eO6667D27t9jLtLwBJCnEqFpYJ/pb7Ix/s+BhTsVh8sBZO4pscU7hnXnUDvZugFslmhYBdk/wlHUx2PhfuBk0/5Kscq5ycO80WlyKrnot1qdQGrvZOAJYRozNrstTyybiHFJsc98iylfUnSXsdTUwaRHOuie+ApCpRlw9E/6wJVThpYqxqWDYqH2H6OXqmYvhDdG7zknCVELVd9n7tkDtZ777132tdvvPFGV3yMEEJ4jMKqQhZuWMwv2asAsJtD0JZcyYKRk5k2IA61+jyGA6uNNUN9f0J2quPxeH7DcoZAR5jqMABiB0Bsf/ALP/fPFUI0mUt6sIKDg+s9t1gsVFZWotfr8fHxobi4+Hw/otWTHiwhBDiWXvh0/2c8/ftSTPYKFEWNpXgYl8XP4MFL+hDse5YrktuscGxPTc9UTaA6tpcGQ321k9BjB9QFqtAuoFa7rG1CtAetqgerpKSkwb709HT+/ve/c99997niI4QQotU7XHaY+355hL2laQDYqmLpYLuRZ64cT9+Owad/M9TcVuZoXZiqnYxuqWxYNrAjdOhfF6iie8taU0K0Is22WElSUhJPP/00119/PXv37m2ujxFCCLez2Cy8uvXfvL3rLexYUOw6VCXj+MegW7h+UCc0pxoONJU7AtSJE9EbWyLBEOCYL3XiUJ9/ZPM2SghxXpp1NTiNRuNRt4d59dVXWbp0Kbm5ufTq1YsXXniB4cOHu7taQohWLC0/jXlrHuaY6QgA1uNdGRk6myeu+ithfoa6gnYbFOypPxH92F5QTroRvErjuMHxiUN9YV1lqE8ID+OSgPXVV1/Ve64oCrm5ubz88ssMHTrUFR/R7FasWMHcuXN59dVXGTp0KG+88Qbjx49n9+7ddOzY0d3VE0K0MhWWCh5du5SVWZ+BSsFu9SXUdCVLx9/EwE6hYMyB3SfMm8rZCpaKhgcK6NBwqE+WSBDC47lkkrv6pP9ZqVQqwsPDueiii/jnP/9JdHT0+X5Esxs4cCD9+vXjtddec+7r0aMHU6ZM4amnnjrj+2WSuxDtx7cHfmLhhieoUhwX8KiNfXkw7iKuDC1Bk5PqCFTljfTe6/3qD/V1GAD+US1ceyHE6bSqSe52u/3MhVoxs9lMamoqDzzwQL39Y8eOZcOGDY2+x2QyYTKZnM+NRmOz1G3uWxeTby/i2p7/x2XDb2qWzxBCNE1BRQH/t/JRdhnXAxBk1nK/UWHS8a9RFX1Zv7BK7bjJcWz/ukAV3g3UchN0IdoDuSMnUFhYiM1mIzKy/qTRyMhI8vIamXAKPPXUUyxcuLDZ65alHGO/l52C4kPN/llCiEYYc7Fn/877O1fwasVOKtUKGkVhRpmR2aVGvGsHAfxjThrq6wMGP7dWXQjhPuccsObNm9fkss8999y5fkyLOvk+YIqinPLeYPPnz6/3Z2A0GomLi3N5ndRoADs2S7nLjy2EOIm5wrEC+gkT0Q9V5fN4aAip3l6ghl4mEw8XVdAzsjfqnicM9QXEuLv2QohW5JwD1tatW5tUrtlvXuoCYWFhaDSaBr1VBQUFDXq1ahkMBgwGQ6OvuZIaLWDBZjne7J8lRLtitznuzXfiAp4Fu0GxAWABlgUF8GZsNBaVCp1dxTBLCg+MnEtMl34y1CeEOK1zDlhr1qxxZT3cSq/X079/f1atWsXUqVOd+1etWsXkyZPdWDNQqXRAFfbGrj4SQjRded4JC3imwtGtYG6kZ9g/mg1hXXnIWkCh1vHvTmfqwYMDH+bK3he0cKWFEJ5K5mDVmDdvHjfccAMDBgxg8ODBvPnmm2RmZjJ79my31kuFDgCbrZGVnIUQjTNXQm5a/d4pY3bDcjpfx1V9NffrOxbcjb+v+zd7K1ai0iooVl9Ghd/Kkktm4K2X06UQoulcdsb4448/+O9//0tmZiZms7nea5999pmrPqbZXH311RQVFfH444+Tm5tLcnIy3333HfHx8W6tl0rluG+Z3Vrl1noI0WrZ7Y6hPue8qT8hv26or44KInqcdFVfd9BoURSF59Z/xrubbkHRlKFSQagylJcnPEpytMytEkKcPZcErE8++YQbb7yRsWPHsmrVKsaOHUt6ejp5eXn1htxau9tvv53bb7/d3dWoR6V2zPNS7BKwhHDeq6/2Hn1H/zz1UJ9fVE2QqglUMX3B4N+g2NajR5iz6jFKVKmgAZU1jL/1vJ87Bl3iEXNIhRCtk0sC1uLFi3n++ee544478Pf351//+heJiYncdtttHrHIaGumUnsBYLObzlBSiDaoorAmSG2BnC2Ox4qChuV0PjVDfSf0TgXEwGkCUqXZwt3fvcb64vdRaapRFDUpvpN5ZeL9hPjI8gpCiPPjkoB18OBBJk6cCDiurquoqEClUnH33Xdz0UUXtch6UW2VSu0FCij2andXRYjmVW10zJtyhqmtUJbZsJxKU7OAZ1+IccydIrwHaJp+Ovtwy2aWpi7Cps9ApQFvewKLhz/BxV36uKw5Qoj2zSUBKyQkhPJyRxd9bGwsO3fuJCUlhdLSUiorZXL2+VBrvMEKit185sJCeApLFeTtqAtTOVuhMB1o5M5doUmOSegx/Ry9VFEpoPc5p489eKyE279bylHlO1R6G9gNXNrxZh4feSvaswhoQghxJud1RklLS6NPnz4MHz6cVatWkZKSwrRp05gzZw6rV69m1apVjB492lV1bZdUGh9HwMLi7qoIcW5sFsf6UieGqYI9YLc2LBvYsaZnqqZ3KqYPeAWedxWqLTYeW/kl3+a8hEpfiEoFsfoBvDruCTqFdDjv4wshxMnOK2D169ePvn37MmXKFK699lrAscK5Tqdj3bp1XH755TzyyCMuqWh7pdL4AmDF5vii0ujcXCMhTsNqcoSn3G11W/5OsDYyxO0b7ghRJ/ZO+YW7vErf7EznsXXPYPbejEoPWiWQef3+wfUpk2QSuxCi2ZxXwFq/fj1vv/02zz77LE899RSXX345N998M/fffz/333+/q+rYrql1jqEQq0oF1WXgG+bmGglRw1IF+bsc86acYWo32BvpbTUEOnqjasNUbD8IiD3tJPTzlVlUwZxv3ma/9UPU3o4FQweGTeK5i+cTYAhots8VQgg4z4A1ePBgBg8ezIsvvsh//vMf3nnnHS6++GISEhKYNWsWM2bMoEMH6X4/H3qN4ypCC0jAEu5jKoe8nTVBKs3xeGxfI2tNAV5BEN37hK0PhHQCtbpFqlptsfHP1Rv46OALqH33o9ZCoCaOJaMeZ0jsgBapgxBCuGRWp7e3NzNmzGDGjBkcPHiQd955hzfeeIMFCxYwZswYvvvuO1d8TLukrxkSNKtUUF3q3sqI9qGqFPK2O256XNszVXSARieg+4Q5eqai+9QFqqCOzdozdTo/783lwZ9focLnO9S+FlSKlmu7zuLegbPRyfC6EKIFufyymc6dO/PAAw8QFxfHgw8+yI8//ujqj2hX9BrHSu6W2iFCIVxFUaD0iKNnKn+n46q+/J1Qcrjx8gGxJ/VM9Qb/aLeFqRNll1Ry/9ffkFb1bzR+uaiATn69eeHiJ0gMTHR39YQQ7ZBLA9avv/7K22+/zaeffopGo2HatGncfPPNrvyIdsdwYsCqKnVvZYTnslQ5ruRzhqmdjvlTplOE9qD4+kN80ReAX0SLVrkpTFYbr/26mzd3voo6cD0aLwW9yo/7L7yPad2nyiR2IYTbnHfAysrKYvny5SxfvpyMjAyGDBnCSy+9xLRp0/D19XVFHdu1uh4spAdLnJmiQHle/R6pvJ1QlA6KvWF5tQ4iukNkCkQlQ2SyY50pn5CWr/tZ+nX/MR78YQWlPp+gCXL82/hr9FgeH/4god6hbq6dEKK9O6+ANWbMGNasWUN4eDg33ngjs2bNolu3bq6qmwAM2po5WMgQoTiJuRIK9zmWRcjfVRemKgsbL+8TVj9ERSZDWFfQ6lu23ucps6iSR75Zz2bjO+gCd6AGgvVRLB7+GMM6DHN39YQQAjjPgOXt7c2nn37KpEmT0Gg0rqqTOIFXzcRcmYPVjlnNUHzQMcRXsKdm2w3FGTQ68Vyldqx+fnKY8o9qFfOlzlWl2crLq/fz9o6P0Ib+gC7AhAo107vfwJz+d+Ct9XZ3FYUQwum8AtZXX33lqnqIUzBoDUBtwCp1b2VE87LbHBPMTwxRBXscw3uNrXoO4BPquC9fRI+aMJXseK5rO2FDURS+2Z7LE6tWctzvE3QRRwHoGtiLRX9dQPeQ7m6uoRBCNCQ332rlvLQyB6vNsdugNNNx771je+vC1LF9YK1q/D2GAAjv7ghStYEqomezrHzemuzJNfLIV3+yo3IFurCNaFQKXhpf7h1wN1d1uwq1qmXW1hJCiLMlAauVqwtYMkTocSxVjvWjCvfDsf2Ox8L9jn2N3ToGQOsF4d3qh6iIHs2+6nlrU1pp5p8r9/HJ7m/RR3yNPsQIwLj48Tww8H7CvGXBXSFE6yYBq5Xzrh0ilEnurVdlcU2I2lcXogr3Q8kRGp0jBaAxQGgXCO9aP0wFJ4C6/c5ntNkVPvkjk6U/b8AU+ClesfsAiPGN47EhDzMkZoibayiEEE0jAauV89adMERYWerWurRr5gooPgRFBx0TzosOOR4L00991R44bhsT3g3CkiCsm+OqvfCujnWm2nGQaswfh4t59Ms0Dpq/RR+9Bq3aglal45YLbuaWlFswaAzurqIQQjSZBKxWzrtmiNAsQ4TNz1INJRknhKiDdaGqPOf07w2Mc4Sn2gAV1tURqHzD2tXQ3rnIK6vm6e/38HX6r3hFfokhyBFYL4y8kIcHP0ynwE5urqEQQpw9CVitnLe+5mbPErBcw1TuGLorOezYig/V9UiVZXHKIT0A72AI6QyhnR3DeyGdan5OAoNfCzWg7agy23hz7SFeX5eKEvoVPh13ABDiFcr9F97HhMQJshK7EMJjScBq5XxOnORuMzl6WXRebq5VK2azgvFoXYAqPSFMlRyGyqLTv98QcEJw6lIXqEI6ecTq5p5AURS+2pbDU9/vokjzE4b4n1GpzahVGqZ3v5Y7+tyBn14CqxDCs0nAauV8dHXrYCmAqroUdFFurZNb2e1wPN/R21SW5Vju4MQAVZZ96jWjavmEOuZABSc4ttAuNSGqswzpNbMtmSU88c1uthduwRD1BV6GAgD6hvfloUEP0S1E7gQhhGgbJGC1cj76utuYWAFddZljRe62ylzpCEllWSc9ZjvClDEH7JbTH0Ojrx+ggk/4OSgevAKavx2inpzSKp75YS9f7diHIfJbfOLTAAg2BDNvwDwu63yZrGklhGhT2nzASkhI4MiRI/X2/eMf/+Dpp592Ps/MzOSOO+5g9erVeHt7M336dJ599ln0evffo622BwscvVg6T56HZal2TBY35kJ5riMsGXPqeqPKss88hAeg0jjWhQrsAEFxJwSpBEeA8o8GtXxZtwaVZiuv/3qIN9fux+a3Ad/OK1FpTKhQMa3bNO7qexeBhkB3V1MIIVyuzQcsgMcff5xbb73V+dzPr25+h81mY+LEiYSHh7Nu3TqKioqYMWMGiqLw0ksvuaO69XifFLBa5UR3RXEEI2NOXXCq95jrCFZVJU07nt7fEZwCO9RscY6tdp9fFGjaxV9dj2W3K3yRdpRnftjLMct+vDp8gc4rF4Dk0GQeHvQwvcJ6ubmWQgjRfNrFt5S/vz9RUY0Pq61cuZLdu3eTlZVFTEwMAP/85z+ZOXMmixYtIiDAvcNJGrUGRVGhUimYVUBVact9uLkSKgrgeO2WDxXHHI/OfXlQngc2c9OOqfVy9DAFxNQ9BnU8IUh1AK9AmQflwVKPFPP417vZnpuNIeIHfINSAQjQBzCn3xyuSLoCjawBJoRo49pFwHrmmWd44okniIuL46qrruK+++5zDv9t3LiR5ORkZ7gCGDduHCaTidTUVEaNGuWuajupFC2oLOd/w2dFAUslVBQ6tuP5pwlQx8BcfnbH9w2vH578oyEgGvxjah6jHUsdSHhqk7KKK1ny4z6+3paJLmQjvl1+RqV23BJoapepzO0/lxAvuRJTCNE+tPmANWfOHPr160dwcDC///478+fPJyMjg3//+98A5OXlERkZWe89wcHB6PV68vLyTnlck8mEyWRyPjcajc3TAAA0gKXh7XKsZsfQXIOt2LG6eIN9Rae+B96paL3ANwL8TtjqPY9yhCe/KNC6f86aaHmllWZeWXOAdzccwea1F99OX6M2HAOgV2gv5g+cT+/w3m6upRBCtCyPDFgLFixg4cKFpy3zxx9/MGDAAO6++27nvgsuuIDg4GCuvPJKnnnmGUJDQwEaXcxQUZTTLnL41FNPnbEOrqJStCjUrOa++Q3Y+r4jMJnOMdRp9DUhKRz8Ih09T36RJwWoSMfrhgDpcRKNMlltvLfhCC+vOYDRmoch+hsM/nsACPEKYW6/uUzuMlmuDhRCtEseGbDuvPNOrrnmmtOWSUhIaHT/oEGDADhw4AChoaFERUWxefPmemVKSkqwWCwNerZONH/+fObNm+d8bjQaiYuLa2ILzpZjvopFhWNIr+KEl1Rqx7pOzi3kpOeNbHpfCU3inNntCl9vz2Hpj/vILi1FH/YLfqG/gcqKVqXl2h7XMrv3bAL0shyGEKL98siAFRYWRlhY2Dm9d+vWrQBER0cDMHjwYBYtWkRubq5z38qVKzEYDPTv3/+UxzEYDBgMLXPzWRU6FOBg//n0jO9RP0x5BcmSBKLFbDxYxFPf72F7dinagG0EJH2PonEMWw+OHswDf3mATkFy70AhhPDIgNVUGzduZNOmTYwaNYrAwED++OMP7r77bi677DI6duwIwNixY+nZsyc33HADS5cupbi4mHvvvZdbb73V7VcQ1lKjwQ4UhPSG7he7uzqiHUrPL+fp7/fy894C1IYc/BK+RuWdgQLE+sVy/4X3MypulNw7UAgharTpgGUwGFixYgULFy7EZDIRHx/Prbfeyv333+8so9Fo+Pbbb7n99tsZOnRovYVGWwt1za/J1NSlEIRwkQJjNc//tJ8Vf2ShaIx4R69CG/QnoOCt9eaWlFuY0WsGBk3L9OYKIYSnaNMBq1+/fmzatOmM5Tp27Mg333zTAjU6N2qVDoBqqwQs0TLKKi28vvYg76zPoNpqQh+yFu+ItdhxXDk7PmE88wbMI8q3Dd+2SQghzkObDlhthfRgiZZSabbyzvrDvPHrQYzVZrQB2wiOXolVXYIduCDsAu678D76RPRxd1WFEKJVk4DlATQqx69JerBEczFb7az4I5MXVx/gWLkJjfdhQpK+x6I9ghWI9o1mbr+5jE8cL/OshBCiCSRgeYDaIUKzzeLmmoi2xmZX+GrbUZ5flU5mcSUqXTEhiSuxeKVhAXy0Ptx6wa1c3+N6vLRe7q6uEEJ4DAlYHkCr0oICJunBEi6iKAo/7ylg6Y/72JdfDupqgmLXQuBaLIoVtUrN1C5TubPvnYR5n9uSKEII0Z5JwPIAmpqAZbZLwBLnb9OhIpb8sJctmaWAFf/wVLwifqbabgQFBkYP5L4B99EtpJu7qyqEEB5LApYH0MoQoXCBPw8X8/xP+1l/oAiw4x28k6DYnzluy6faDgkBCdx34X0Mjx0u86yEEOI8ScDyAFq1DmxgkYAlzsGWzBKeX7Wf39ILATD4HSQ84SfKbBkct0GoVyize8/miq5XoFPr3FxbIYRoGyRgeQBtzZeexS4BSzTdtqxSnv9pP7/sOwaAzjuHuM5rOGbbQZnNMYH9puSbuLHnjfjofNxcWyGEaFskYHkArdrxa7LIHCzRBDuPlvHCT/v5aU8BAFpDMZ2S1pFr28Axm+Pv09XdrubWlFsJ9Q51c22FEKJtkoDlAfRqPSA9WOL0dh4t48Wf01m5Ox8AtfY43bv/Tq59Nbk2KwATEidwZ987ifOPc2dVhRCizZOA5QFqhwitdqubayJao9QjJby8Op01NUOBKk01KT22k6f6gSxrJQBDYoYwt99ceoT2cGdVhRCi3ZCA5QH0GpmDJepTFIVNh4p5eU16zVWBoFab6d1zF3nq78mwGAHoGdqTuf3mMjhmsDurK4QQ7Y4ELA9Qe2WXVZGA1d4pisLa9EJeXp3OH4dLANBqrPRL3kuu6jsOmIrB5lhy4Y4+dzA2YSxqldrNtRZCiPZHApYH0Gscc7Bs0oPVbtntCj/tyeflNQfYnl0GgF5r5y8pB8jma/ZUO4YHY/1iub3P7UxInOC8OEIIIUTLkzOwBzDUBCyrInOw2huz1c6XaUd5c+0h0guOA+ClUxjS+whZyldsq8wBINInktm9ZzO5y2RZy0oIIVoBCVgeQK9x/JpsMkTYbhw3Wfl4cybL1mWQZ6wGwM+gYmifTDLtX/PH8UwAwrzDuCXlFq7seiUGjcGdVRZCCHECCVgeoPaL0yY9WG1eQXk1y9cf5v1NRyivdvy+w/01DO59mH3VX7DBeBSAYEMws5JncXX3q/HWeruzykIIIRohAcsD1F5FaEcCVlt16Nhx3vrtEJ+mHsVsswOQGK5nQHI6acYvWFOUC0CIVwg39ryRa7pfg6/O151VFkIIcRoSsDyAl9YxB8suQ4RtiqIobM4o5u11Gazak4+iOPb37uhDSvc9bCj8lB/yHKuxh3mHcVOvm7iy65VyWxshhPAAErA8gJfWMUQoPVhtg8lq4+ttuby9LoPduUbn/pHd/enUaQc/5/6HL7OKAcfk9VnJs7g86XK8tF7uqrIQQoizJAHLA9T1YEnA8mTHyk18uPkIH2w6QuFxx30lvXRqJvbxxz9yIyuzPic1oxyAGN8Ybk65mSldpjiX6RBCCOE5JGB5AENNwFKwubkm4lzszjHyzvoMvkzLcc6vigrw4rILdVR4reaHw19jPugIXAkBCcxKnsWkzpNkuQUhhPBgErA8gLeuJmCppAfLU5itdn7clccHm46wOaPYub93XBDj+llIr/6KTzJ/QsEx8eqCsAuYlTyLUR1HycrrQgjRBnj0mXzRokUMGTIEHx8fgoKCGi2TmZnJpZdeiq+vL2FhYfzf//0fZrO5XpkdO3YwYsQIvL29iY2N5fHHH0epnXHcCnjXzMFSZA5Wq5dTWsU/V+5jyNOruevjrWzOKEajVjExJYqFV2sJ6/I2r+2/i58yV6GgMDx2OO+Me4cPJnzA6PjREq6EEKKN8OgeLLPZzFVXXcXgwYNZtmxZg9dtNhsTJ04kPDycdevWUVRUxIwZM1AUhZdeegkAo9HImDFjGDVqFH/88Qf79+9n5syZ+Pr6cs8997R0kxrl7MGSgNUq2e0K6w4U8v6mI/y8Jx97TTYP9zdw1YWRhEbu5JvDb/Hs9gMAaFVaxieOZ2byTLoGd3VjzYUQQjQXjw5YCxcuBGD58uWNvr5y5Up2795NVlYWMTExAPzzn/9k5syZLFq0iICAAD788EOqq6tZvnw5BoOB5ORk9u/fz3PPPce8efNQqVQt1ZxT8q6Zg4VK5mC1JqWVZv6Xms0Hm45wuKjSuX9wp1Au7e9DnrKazw8spDS3FABvrTdXJF3BjT1vJNov2k21FkII0RI8OmCdycaNG0lOTnaGK4Bx48ZhMplITU1l1KhRbNy4kREjRmAwGOqVmT9/PocPHyYxMdEdVa/HR19zeb7Kit2uoFa7P/S1V7W9Vf/5M4uVu/Kdk9b9DVqu6N+BC7sZ+TXvM5buWuW8d2SsXyzXdr+WqUlTCdAHuLP6QgghWkibDlh5eXlERkbW2xccHIxerycvL89ZJiEhoV6Z2vfk5eWdMmCZTCZMJpPzudFobLScK9QOEaKyYbbZ8VJrmu2zROOyiiv5b2o2n6Zmc7S0yrm/V0wA1w6MxS9kN//dv5hPN213vjYgcgDX97iekXEj0cjvTAgh2pVWF7AWLFjgHPo7lT/++IMBAwY06XiNDfEpilJv/8llaie4n2548KmnnjpjPV3FtyZgqVR2TFYrXjr5sm4J1RYbP+7K4z9/ZrH+QJFzf6C3jil9YhjZS8cO448sO/AohXsLAdCpdUxInMD1Pa+ne0h3d1VdCCGEm7W6gHXnnXdyzTXXnLbMyT1OpxIVFcXmzZvr7SspKcFisTh7qaKiopy9WbUKChy3Jzm59+tE8+fPZ968ec7nRqORuLi4JtXrbNVeRQhQYTYR6G04TWlxPhRFIfVICV+kHeWrtByMNTdcVqlgaOcwrhwQg2/QAb44+Bpz1v/mXGYhzDuMad2mcVXXqwjzDnNnE4QQQrQCrS5ghYWFERbmmi+owYMHs2jRInJzc4mOdkwqXrlyJQaDgf79+zvLPPjgg5jNZvR6vbNMTEzMaYOcwWCoN2+rOXnp6j6nymI+TUlxrg4UlPPF1hy+3HaUrOK6IcDYIG+uGtCBUT292HTse15Jf5i8irpAPih6ENO6TWNk3EhZGFQIIYRTqwtYZyMzM5Pi4mIyMzOx2WykpaUB0KVLF/z8/Bg7diw9e/bkhhtuYOnSpRQXF3Pvvfdy6623EhDgmGw8ffp0Fi5cyMyZM3nwwQdJT09n8eLFPProo63iCkIArbru11QpActl8o3VfL0th8+3HmVXTt0cOl+9hnHJUUzuE4Xa5wCfH3idmT+tcU5aDzIEMaXLFK7seiXxAfHuqr4QQohWzKMD1qOPPsq7777rfN63b18A1qxZw8iRI9FoNHz77bfcfvvtDB06FG9vb6ZPn86zzz7rfE9gYCCrVq3ijjvuYMCAAQQHBzNv3rx6w3/uplapQVGDyk6lpdrd1fFopZVmVu7O58u0o2w4WETterJatYqR3cKZ3CeWLrGV/HjkGx5P+5qCqgLne/tF9OOqblcxJn4MBo0M0wohhDg1ldKaliz3YEajkcDAQMrKypy9Y66U8k5/UJt5adh/GdlZJk+fjaLjJlbuzue7HblsPFiE1V73V35AfDCT+8by125+bC74mS8Pfsn2Y3VXAgYaApmYOJEru15JUnCSO6ovhBCiBbnq+9yje7DaFy1gljlYTVRgrObHXXl8tyOPzRlFnJCp6B7lz6QLopnUO4qj1dv58sArvPDNz5jtjj9bjUrD8NjhTO4ymb92+Ct6jd5NrRBCCOGpJGB5CBUaFKDaajpj2fbqSFEFP+0p4Iedufx5pIQT+2ZTYgMZnxLFuF6RlCsH+T7jf9z080oKqwqdZboEdWFKlylM7DRRrgQUQghxXiRgeQiVokVBriI8kcVm58/DJazem8/qvQUcPFZR7/W+HYOYkBztCFUc5oeML5n96w/1rgIMNAQyIXECk7tMpmdIz1ZzYYMQQgjPJgHLQ6jRYgeqbO07YBVXmPllXwE/7y1g7f5jlFfX3QBbq1ZxYUIIY3tFcklyFMft2Xyf8Q2zf/2BrPIsZzlfnS8XxV3EJYmXMDh6MDqNLK8ghBDCtSRgeQi1yvGrMrWzHiyT1cbWzFI2HCxiXfoxtmaV1hv6C/HVM7JbOKO7RzIsKZSsiv2szvya2Wt+5lDZIWc5L40XI+JGcEnCJQyLHYaX1ssNrRFCCNFeSMDyEOqaX5WpjfdgWW12duYYWX+gkI0Hi/jjcDEmq71emZ7RAVzUPYKLekTQM8aXrQWp/Jy5jOe+WUNBZd2yCjq1jmGxw7gk4RJGxo3ER+fT0s0RQgjRTknA8hBqlWMYq9rWtia52+0K+/LL2XCwiI0HC9l8qJhyk7VemTA/A0M6hzKkcygjuoVjMFSx/uh6Pjm8jHXr11FuLneW9dH6MCx2GBd1vIjhHYYToHf9khlCCCHEmUjA8hCaml+V2Wpxc03Oj92ukFFUwaZDRWw4WMSmg0UUVdTvlQvw0jK4cyhDOocxpHMoncJ92F20m3VHv+Wedb+xs3Cn8x6AACFeIYyKG8VFHS9iYPRAWQRUCCGE20nA8hC1c7CqbZ4VsI6Vm9iWVcq27FLSskrZllXqvIFyLW+dhr8khtT0UoXRMyaAvMocNudu5q19m9j8y2aKq4vrvad7SHeGxQ7jrx3+ygVhF6BRa1qyWUIIIcRpScDyEBqVDhQwW1vvHKyyKgt7co3OQLUtq4yjpVUNyhm0anrHBTG0cxhDu4RyQYcgyi0l/J73O59mvs99mzdx9PjReu/x1fkyJGYIw2KHMTRmKJG+kS3VLCGEEOKsScDyEFqV1hGw7O4PWHa7QlZJJXtyjezOMbI7t5w9ucZGw5RKBUkRfvTuEESfjkH07hBE10g/8itz2FKwhW9ytvJ42hYyyjLqvU+j0pASlsJfov/CoOhB9AnvI8spCCGE8BgSsDyERq0DO5hbcIjQYrNzpKiSAwXHOXjsOAcKjjt/rjTbGn1PbJA3KbGBzjCV0iEQrcbK3uK97Chcy9vpW9m6fmu9FdRrdQvuxsDogQyMHkj/yP746nybu4lCCCFEs5CA5SG0NXOwzC5epqHKbCOzuLJuK6ogs7iSI8WVZBVXYrE1fi9wvUZN1yg/ekQF0DMmgB7RAfSICsDHC9JL0tlZmMoP+bv4565dHCg9gE2pH8i0ai3Jocn0jexLv4h+9AnvQ5BXkEvbJoQQQriLBCwPoVM7hscs9qb1YFltdoorzRRXmCksN5NbVkW+sZrcsmryyqrJMzoeT76C72TeOg2dI3zpEu5Hl4i6rWOID6XmIvaX7Ce9ZAtfHU3n2Z37OVR2qNE6hnqFkhyWTJ+IPvSN6Euv0F6y2KcQQog2SwKWh9DWBKz88go+2pxJebWF4yYr5dW1m4XiCkegKqowU1bV9KHEAC8t8aG+dAzxIS7Eh/hQHzrWPIb7aTlamc2RsiMcMW5jk/Ewn2Qf5kDpAcpMZY0ez1/vT3JoMr3CejkfI30i5T5/Qggh2g0JWB5CXzPB+0ixkQc/39Gk96hUEOyjJ9RXT1SgF9GBXkQFeBEV6O34OdCLCH8dJkrIrcgl5/hRcity2Xc8h18ycsnansXR40exK/ZGj69WqYkPiCcpKImuwV1JCk4iKTiJDn4dJEwJIYRo1yRgeYiuEcHsPA4xQXqSwiPx99Lib9Di56XFz6DD30tLsI8OP287XnozWp0JlcZEpfU4ZaYyiqqOUFhdSFFVEfvLiyguKKaoqoii6qIG86NO5q31JiEggfiAeOfWOagznQI7yTCfEEII0QgJWB4izM9xHz1twDbMfoXk2EyYbCbMFWZMRsfPx83HsSrWMxypIa1aS7RvtHOL8Ysh2jeaWL9YEgITCPcOlx4pIYQQ4ixIwPIQkT6OhTXzK/PJr8w/bVm1So2fzg9/vT/+en8C9AGEeoUS6l2znfBzuHc4Yd5hqFXqlmiGEEII0S5IwPIQU7tMJdQrlGpbNQaNAb1Gj16jd/5sUBvw0/sRoA/AW+stPU5CCCGEG0nA8hA6jY7R8aPdXQ0hhBBCNIGMCwkhhBBCuJgELCGEEEIIF5OAJYQQQgjhYhKwhBBCCCFcTAKWEEIIIYSLScASQgghhHAxWabBRRRFAcBoNLq5JkIIIYQ4V7Xf47Xf6+dKApaLlJeXAxAXF+fmmgghhBDifJWXlxMYGHjO71cp5xvRBAB2u52cnBz8/f1duoq60WgkLi6OrKwsAgICXHbc1kba2bZIO9sWaWfb0h7aeT5tVBSF8vJyYmJiUKvPfSaV9GC5iFqtpkOHDs12/ICAgDb7D+FE0s62RdrZtkg725b20M5zbeP59FzVkknuQgghhBAuJgFLCCGEEMLFJGC1cgaDgcceewyDweDuqjQraWfbIu1sW6SdbUt7aGdraKNMchdCCCGEcDHpwRJCCCGEcDEJWEIIIYQQLiYBSwghhBDCxSRgucGrr75KYmIiXl5e9O/fn99+++205X/99Vf69++Pl5cXnTp14vXXX29Q5tNPP6Vnz54YDAZ69uzJ559/3lzVbzJXt/Ott95i+PDhBAcHExwczMUXX8zvv//enE04o+b4Xdb65JNPUKlUTJkyxcW1PnvN0c7S0lLuuOMOoqOj8fLyokePHnz33XfN1YQmaY52vvDCC3Tr1g1vb2/i4uK4++67qa6ubq4mNMnZtDM3N5fp06fTrVs31Go1c+fObbScp5+DmtLO1ngOgub5fdby1PNQU9vZrOchRbSoTz75RNHpdMpbb72l7N69W5kzZ47i6+urHDlypNHyhw4dUnx8fJQ5c+You3fvVt566y1Fp9Mp//vf/5xlNmzYoGg0GmXx4sXKnj17lMWLFytarVbZtGlTSzWrgeZo5/Tp05VXXnlF2bp1q7Jnzx7lpptuUgIDA5Xs7OyWalY9zdHGWocPH1ZiY2OV4cOHK5MnT27mlpxec7TTZDIpAwYMUCZMmKCsW7dOOXz4sPLbb78paWlpLdWsBpqjnR988IFiMBiUDz/8UMnIyFB+/PFHJTo6Wpk7d25LNauBs21nRkaG8n//93/Ku+++q/Tp00eZM2dOgzJt4RzUlHa2tnOQojRPO2t58nmoKe1s7vOQBKwW9pe//EWZPXt2vX3du3dXHnjggUbL33///Ur37t3r7bvtttuUQYMGOZ9PmzZNueSSS+qVGTdunHLNNde4qNZnrznaeTKr1ar4+/sr77777vlX+Bw0VxutVqsydOhQ5d///rcyY8YMt5/YmqOdr732mtKpUyfFbDa7vsLnqDnaeccddygXXXRRvTLz5s1Thg0b5qJan72zbeeJRowY0egXVVs4B53oVO08mbvPQYrSfO309PPQiU7VzuY+D8kQYQsym82kpqYyduzYevvHjh3Lhg0bGn3Pxo0bG5QfN24cf/75JxaL5bRlTnXM5tZc7TxZZWUlFouFkJAQ11T8LDRnGx9//HHCw8O5+eabXV/xs9Rc7fzqq68YPHgwd9xxB5GRkSQnJ7N48WJsNlvzNOQMmqudw4YNIzU11TmMdOjQIb777jsmTpzYDK04s3NpZ1O0hXPQuXDnOQiat52efh5qiuY+D8m9CFtQYWEhNpuNyMjIevsjIyPJy8tr9D15eXmNlrdarRQWFhIdHX3KMqc6ZnNrrnae7IEHHiA2NpaLL77YdZVvouZq4/r161m2bBlpaWnNVfWz0lztPHToEKtXr+a6667ju+++Iz09nTvuuAOr1cqjjz7abO05leZq5zXXXMOxY8cYNmwYiqJgtVr5+9//zgMPPNBsbTmdc2lnU7SFc9C5cOc5CJqvnW3hPNQUzX0ekoDlBiqVqt5zRVEa7DtT+ZP3n+0xW0JztLPWkiVL+Pjjj/nll1/w8vJyQW3PjSvbWF5ezvXXX89bb71FWFiY6yt7Hlz9u7Tb7URERPDmm2+i0Wjo378/OTk5LF261C0Bq5ar2/nLL7+waNEiXn31VQYOHMiBAweYM2cO0dHRPPLIIy6ufdM1x/miLZyDzkZrOQeBa9vZls5DZ9Lc5yEJWC0oLCwMjUbTIHEXFBQ0SOa1oqKiGi2v1WoJDQ09bZlTHbO5NVc7az377LMsXryYn376iQsuuMC1lW+i5mjjrl27OHz4MJdeeqnzdbvdDoBWq2Xfvn107tzZxS05veb6XUZHR6PT6dBoNM4yPXr0IC8vD7PZjF6vd3FLTq+52vnII49www03cMsttwCQkpJCRUUFf/vb33jooYdQq1t2lsa5tLMp2sI56Gy0hnMQNE87Dx482CbOQ03R3OchmYPVgvR6Pf3792fVqlX19q9atYohQ4Y0+p7Bgwc3KL9y5UoGDBiATqc7bZlTHbO5NVc7AZYuXcoTTzzBDz/8wIABA1xf+SZqjjZ2796dHTt2kJaW5twuu+wyRo0aRVpaGnFxcc3WnlNprt/l0KFDOXDggPPEDbB//36io6NbPFxB87WzsrKyQYjSaDQojguMXNiCpjmXdjZFWzgHNVVrOQdB87SzrZyHmqLZz0PNMnVenFLtpabLli1Tdu/ercydO1fx9fVVDh8+rCiKojzwwAPKDTfc4Cxfeyn43XffrezevVtZtmxZg0vB169fr2g0GuXpp59W9uzZozz99NOt5hJpV7bzmWeeUfR6vfK///1Pyc3NdW7l5eUt3j5FaZ42nqw1XL3THO3MzMxU/Pz8lDvvvFPZt2+f8s033ygRERHKk08+2eLtq9Uc7XzssccUf39/5eOPP1YOHTqkrFy5UuncubMybdq0Fm9frbNtp6IoytatW5WtW7cq/fv3V6ZPn65s3bpV2bVrl/P1tnAOUpQzt7O1nYMUpXnaeTJPPA8pypnb2dznIQlYbvDKK68o8fHxil6vV/r166f8+uuvztdmzJihjBgxol75X375Renbt6+i1+uVhIQE5bXXXmtwzP/+979Kt27dFJ1Op3Tv3l359NNPm7sZZ+TqdsbHxytAg+2xxx5rgdY0rjl+lydqDSc2RWmedm7YsEEZOHCgYjAYlE6dOimLFi1SrFZrczfltFzdTovFoixYsEDp3Lmz4uXlpcTFxSm33367UlJS0gKtObWzbWdj/+7i4+PrlWkL56AztbM1noMUpXl+nyfy1PNQU9rZnOchVU0lhBBCCCGEi8gcLCGEEEIIF5OAJYQQQgjhYhKwhBBCCCFcTAKWEEIIIYSLScASQgghhHAxCVhCCCGEEC4mAUsIIYQQwsUkYAkhhBBCuJgELCGEOMGCBQvo06ePu6shhPBwspK7EKLdUKlUp319xowZvPzyy5hMJkJDQ1uoVkKItkgClhCi3cjLy3P+vGLFCh599FH27dvn3Oft7U1gYKA7qiaEaGNkiFAI0W5ERUU5t8DAQFQqVYN9Jw8Rzpw5kylTprB48WIiIyMJCgpi4cKFWK1W7rvvPkJCQujQoQNvv/12vc86evQoV199NcHBwYSGhjJ58mQOHz7csg0WQriNBCwhhDiD1atXk5OTw9q1a3nuuedYsGABkyZNIjg4mM2bNzN79mxmz55NVlYWAJWVlYwaNQo/Pz/Wrl3LunXr8PPz45JLLsFsNru5NUKIliABSwghziAkJIQXX3yRbt26MWvWLLp160ZlZSUPPvggSUlJzJ8/H71ez/r16wH45JNPUKvV/Pvf/yYlJYUePXrwzjvvkJmZyS+//OLexgghWoTW3RUQQojWrlevXqjVdf8fjYyMJDk52flco9EQGhpKQUEBAKmpqRw4cAB/f/96x6murubgwYMtU2khhFtJwBJCiDPQ6XT1nqtUqkb32e12AOx2O/379+fDDz9scKzw8PDmq6gQotWQgCWEEC7Wr18/VqxYQUREBAEBAe6ujhDCDWQOlhBCuNh1111HWFgYkydP5rfffiMjI4Nff/2VOXPmkJ2d7e7qCSFagAQsIYRwMR8fH9auXUvHjh25/PLL6dGjB7NmzaKqqkp6tIRoJ2ShUSGEEEIIF5MeLCGEEEIIF5OAJYQQQgjhYhKwhBBCCCFcTAKWEEIIIYSLScASQgghhHAxCVhCCCGEEC4mAUsIIYQQwsUkYAkhhBBCuJgELCGEEEIIF5OAJYQQQgjhYhKwhBBCCCFcTAKWEEIIIYSLScASQgghhHAxCVhCCCGEEC4mAUsIIYQQwsUkYAkhhBBCuJgELCGEEEIIF/t/ZceUci0oPPwAAAAASUVORK5CYII=;" vertex="1" parent="1">
          <mxGeometry y="579" width="600" height="300" as="geometry" />
        </mxCell>
        <mxCell id="fROxqG9AHQ-otkXeG8tQ-2" value="" style="shape=image;verticalLabelPosition=bottom;labelBackgroundColor=default;verticalAlign=top;aspect=fixed;imageAspect=0;image=data:image/png,iVBORw0KGgoAAAANSUhEUgAAAlgAAAEsCAYAAAAfPc2WAAAAOXRFWHRTb2Z0d2FyZQBNYXRwbG90bGliIHZlcnNpb24zLjUuMSwgaHR0cHM6Ly9tYXRwbG90bGliLm9yZy/YYfK9AAAACXBIWXMAAA9hAAAPYQGoP6dpAABD8ElEQVR4nO3deXwU5eE/8M/eu7nvEDlCShXQ6BcILZf5KYepiEqwyqFFFDz4SltiekGtQqgQqlbR1gCxnGqRKl61qE2LXGJtxYBt4YsoYIAkhADJ5tzz+f0xe+8mbJLZ7Cb5vNt57cwzz8w8TwLjh2dmZxRCCAEiIiIiko0y3A0gIiIi6m0YsIiIiIhkxoBFREREJDMGLCIiIiKZMWARERERyYwBi4iIiEhmDFhEREREMmPAIiIiIpIZAxYRERGRzBiwiIiIiGTGgEVEREQkMwYsIiIiIpkxYBERERHJjAGLiIiISGYMWETk5YUXXoBCoUB2dna4mxLQ8uXLoVAouuVYmzdvhkKhcE1qtRoDBgzA/fffj7Nnz4bkmAqFAsuXL3ctHzlyBMuXL8epU6f86t53330YPHhwSNpBRF3DgEVEXjZu3AgA+O9//4tPP/00zK2JDJs2bcInn3yCsrIyPPjgg9i2bRtyc3PR1NQk+7E++eQTPPDAA67lI0eOoKioKGDAevzxx/HWW2/J3gYi6joGLCJy+eyzz3D48GFMmzYNALBhw4Ywtyj0mpubL1snOzsbY8eOxcSJE7Fs2TL8/Oc/x8mTJ/H222/L3p6xY8diwIABQdUdMmQIRo4cKXsbiKjrGLCIyMUZqFavXo3x48fjtdde8wsgp06dgkKhwDPPPINnn30WWVlZiImJwbhx4/CPf/zDb58vvfQSrrrqKuh0Olx99dX44x//6Hdpa/fu3VAoFNi9e3fAY23evLnddm/fvh15eXnIyMiAwWDA8OHDsWTJEr8Rpvvuuw8xMTH497//jby8PMTGxmLy5MnB/4Acxo4dCwD45ptvAACtra1YunQpsrKyoNVq0b9/fyxatAh1dXVe2+3atQs33ngjkpOTYTAYMGjQIHz/+9/3+hl7XiLcvHkz7rrrLgDAxIkTXZcqnT+PQJcIg23L4MGDceutt+KDDz7AqFGjYDAYMGzYMNcIJhF1DQMWEQEAWlpasG3bNnznO99BdnY25s+fj4aGBrz++usB67/44osoKyvDmjVr8Oqrr6KpqQm33HIL6uvrXXVKS0vx0EMP4brrrsObb76JX/3qVygqKvILUl11/Phx3HLLLdiwYQM++OADFBQU4E9/+hNuu+02v7pmsxm33347Jk2ahHfeeQdFRUUdPt5XX30FAEhNTYUQAvn5+XjmmWcwd+5c/OUvf0FhYSG2bNmCSZMmwWQyAZDC4rRp06DVarFx40Z88MEHWL16NaKjo2E2mwMeZ9q0aVi1ahUA6ef9ySef4JNPPnGNMPoKti1Ohw8fxk9+8hM8+uijeOedd3DddddhwYIF2Lt3b4d/JkTkQxARCSG2bt0qAIh169YJIYRoaGgQMTExIjc316veyZMnBQBx7bXXCqvV6ir/5z//KQCIbdu2CSGEsNlsol+/fmLMmDFe23/zzTdCo9GIzMxMV9lHH30kAIiPPvoo4LE2bdrkKlu2bJlo79Rlt9uFxWIRe/bsEQDE4cOHXevmzZsnAIiNGzcG9TPZtGmTACD+8Y9/CIvFIhoaGsR7770nUlNTRWxsrKiurhYffPCBACCeeuopr223b98uAIjS0lIhhBBvvPGGACAOHTrU7jEBiGXLlrmWX3/99YA/G2d/PH+OwbZFCCEyMzOFXq8X33zzjauspaVFJCUliYcffvhyPxoiugyOYBERAOnyoMFgwOzZswEAMTExuOuuu7Bv3z4cP37cr/60adOgUqlcy9dddx0A92WzY8eOobq6GjNnzvTabtCgQZgwYYKsbT9x4gTuvvtu9OvXDyqVChqNBjfccAMA4OjRo371v//973do/2PHjoVGo0FsbCxuvfVW9OvXD++//z7S09Oxa9cuANLlOk933XUXoqOj8fe//x0AMGLECGi1Wjz00EPYsmULTpw40Ymeti/YtjiNGDECgwYNci3r9XpcddVVrt8hEXUeAxYR4auvvsLevXsxbdo0CCFQV1eHuro63HnnnQAQ8L6c5ORkr2WdTgdAutQIABcuXAAApKen+20bqKyzGhsbkZubi08//RRPPvkkdu/ejX/961948803vdrjFBUVhbi4uA4dY+vWrfjXv/6F8vJyVFZW4osvvnCFxAsXLkCtViM1NdVrG4VCgX79+rl+DkOGDMHf/vY3pKWlYdGiRRgyZAiGDBmC559/vrNd9xNsW5x8f4eA9Hv0/ZkRUcepw90AIgq/jRs3QgiBN954A2+88Ybf+i1btuDJJ5/0GrG6HOd/vM+dO+e3rrq62mtZr9cDgN89QrW1tZc9zq5du1BZWYndu3e7Rq0A+N3U7dSZZ2gNHz4co0ePDrguOTkZVqsV58+f9wo2QghUV1fjO9/5jqssNzcXubm5sNls+Oyzz/C73/0OBQUFSE9Pd40cdkVH2kJEocURLKI+zmazYcuWLRgyZAg++ugjv+knP/kJqqqq8P7773dov0OHDkW/fv3wpz/9yau8oqICBw4c8CpzfhPuiy++8Cp/9913L3scZ2ByjqA5rV+/vkPt7SzntxBfeeUVr/IdO3agqakp4LcUVSoVxowZgxdffBEA8Pnnn7e5f9+RQbnbQkShwREsoj7u/fffR2VlJX7zm9/gxhtv9FufnZ2N3//+99iwYQNuvfXWoPerVCpRVFSEhx9+GHfeeSfmz5+Puro6FBUVISMjA0ql+993/fr1w5QpU1BcXIzExERkZmbi73//u+syX3vGjx+PxMRELFy4EMuWLYNGo8Grr76Kw4cPB93Wrrjpppvwve99D7/4xS9gNBoxYcIEfPHFF1i2bBlGjhyJuXPnAgDWrVuHXbt2Ydq0aRg0aBBaW1tdl16nTJnS5v6dT9QvLS1FbGws9Ho9srKyAl7eC7YtRBR6HMEi6uM2bNgArVaL+++/P+D6lJQUzJgxA++9917Ay33teeihh1BaWorDhw9jxowZKCoqwpIlSzBy5EgkJCR41X355ZcxefJk/OIXv8Bdd92Fs2fPYtu2bZc9RnJyMv7yl78gKioKP/jBDzB//nzExMRg+/btHWprZykUCrz99tsoLCzEpk2bcMstt7gek7Br1y7XCNSIESNgtVqxbNkyTJ06FXPnzsX58+fx7rvvIi8vr839Z2VlYc2aNTh8+DBuvPFGfOc738Gf//znLrWFiEJPIYQQ4W4EEfUddXV1uOqqq5Cfn4/S0tJwN4eIKCR4iZCIQqa6uhorV67ExIkTkZycjG+++QbPPfccGhoasHjx4nA3j4goZBiwiChkdDodTp06hUceeQQXL15EVFQUxo4di3Xr1uGaa64Jd/OIiEKGlwiJiIiIZMab3ImIiIhkxoBFREREJDMGLCIiIiKZ8SZ3AHa7HZWVlYiNje3UazSIiIiodxBCoKGhAVdccYXXA5E7igELQGVlJQYOHBjuZhAREVGEOH36NAYMGNDp7RmwAMTGxgKQfphxcXFhbg0RERGFi9FoxMCBA13ZoLMYsOB+WWxcXBwDFhEREXX5liHe5E5EREQkMwYsIiIiIplFZMAqKSlBVlYW9Ho9cnJysG/fvjbr3nfffVAoFH4TX8NBRERE4RJx92Bt374dBQUFKCkpwYQJE7B+/XpMnToVR44cwaBBg/zqP//881i9erVr2Wq14n/+539w1113dWeziYiIejSbzQaLxRLuZoScRqOBSqUK+XEi7l2EY8aMwahRo7B27VpX2fDhw5Gfn4/i4uLLbv/222/jjjvuwMmTJ5GZmRnUMY1GI+Lj41FfX8+b3ImIqE8RQqC6uhp1dXXhbkq3SUhIQL9+/QLeyC5XJoioESyz2YyDBw9iyZIlXuV5eXk4cOBAUPvYsGEDpkyZEnS4CrlWI/D13wGFUpqgcM+7pkBlvuUe80o1oNQAKscUaF4Z+nROREQ9nzNcpaWlISoqqlc/cFsIgebmZtTU1AAAMjIyQnasiApYtbW1sNlsSE9P9ypPT09HdXX1ZbevqqrC+++/jz/+8Y/t1jOZTDCZTK5lo9HYuQYHw3gWeP2+0O2/LQplG8FLDai07nK1HlDrALVB+tQYOr+sjXZPar0UComIKGLZbDZXuEpOTg53c7qFwWAAANTU1CAtLS1klwsjKmA5+aZnIURQiXrz5s1ISEhAfn5+u/WKi4tRVFTUlSYGT60HMicAwu4xicsse0wQ3nXsNsBuBewWwGYFbGZp3pewAzaTNIWDQglonIErSvrURHuHMG00oIkCtDEe9RzzulhAFyd96uOlebU2PH0hIuqlnPdcRUVFhbkl3cvZX4vF0jcCVkpKClQqld9oVU1Njd+oli8hBDZu3Ii5c+dCq23/P8RLly5FYWGha9n51NaQSMoC7t8Zmn07CeEIXhYpcNmcAcyxbLdK864yj3lrK2A1AZYWx7xjsrS2vRxwXQtgbpY+ASngmRukSS4qHaCPc4cvfZwjhDmDmO98vPSpTwAMiYAhQRq1IyIiL735smAg3dHfiApYWq0WOTk5KCsrw4wZM1zlZWVlmD59ervb7tmzB1999RUWLFhw2ePodDrodLoutzdiKBSASi1NGkN422K3AZZmwNzkPVmc882AudFR1kY9UyNgagBMRunT3Cjt22YCms5LU2dpot1hy5AojY45lz2DmCHRseyY18UDXXjpJxER9S0RFbAAoLCwEHPnzsXo0aMxbtw4lJaWoqKiAgsXLgQgjT6dPXsWW7du9dpuw4YNGDNmDLKzs8PRbHJSqhwjTF17h5MXu80dtlqN3uGrtb79da31QGudtA5CCnCWJsB4poONUDjCWIIUuKKSPaYkn+UU6dOQKIVeIiLqcyLu7D9r1ixcuHABK1asQFVVFbKzs7Fz507XtwKrqqpQUVHhtU19fT127NiB559/PhxNplBTqhwjS4md34fd5g5bLZeAFsen53JrnaPcZ52lGYBwBLU64NKp4I+rT/AJXx6BLDrFf50+nl8OICLqBSLuOVjhwOdgUbusJimcuYLZRaD5ItB8wWPyWW65BKATf7VUWiA61T3FpElBLDrNsexclyYFMo6QEVEXtLa24uTJk663p/QV7fW7Vz4HiygiqXVS0IlJC34bm1Ua7fIKYW2EseYLQNMF6QsBNrP0aA/j2SAOopBGw9oNZB7L2r71LSEionBiwCIKBZXaEWxSgt/G0gI01QJNNUCj42b+phqprLHGfYN/03kplAm7O6Cd/7/L718XB8SkS1Nsusd8P0eA7CfNGxJ5mZKIIl5+fj7eeecdvPDCC/jRj37kte7xxx/Hk08+iYceegjr168PS/t4iRC8REg9kN0mjYQ1OYKXVyDzXD4vhbOOPA9NqblMCHOURafx2WREPVxPvkR48eJFjBw5EufOncMnn3yCkSNHAgD+/ve/Iy8vD1dffTX++c9/uh4s6omXCIkoMKVKuh8rJvXydYWQvlnZWAM0VAON56SpoVoqa6wGGhxlLRelZ6QZzwT3TcuoZHcIc4UyRxiLu0IKZrEZ4X98CBH1OklJSdi2bRtuuOEGzJo1C59//jmam5vxgx/8AHq9Htu3bw8YrroLAxZRb6dwPGJCHw+kXNl+XatZGgVrOCcFr8ZzHvM1HqHsnBTEnJcoa460v199PBDrEbjiMqTP2H7u8pg0PgiWKMyW7PgCx87J+IDoDhqaHovV378u6Prjx4/Hr3/9ayxduhQPP/wwzp8/j+rqamzYsAFXX311CFt6eQxYROSm1gLxA6SpPXa79E3JxnPeI2Ceo2MN1UBDlfSYC+czyc4fbWenCilkOUOYZ/jyDGWGJD70lShEjp1rQHlFXbib0SG/+MUvsHv3btd7iOfMmYP58+eHuVUMWETUGUolEJ0sTent/CvReXmyoRowVrpDl2vyCGJ2qzugVR1u59gajwDWz/tSpGco08XyZn2iPkChUGDGjBn48MMPAQAFBQXhbZADAxYRhY7n5cnUoW3Xszu+EekbvnxDWdN56dJkfYU0tUcT7XMp0mc+LkO6X0zTs27sJSJvx48fx09/+lMkJiaivr4eDz74ID799NOw37TPgEVE4adUum/az2jn/gubxX0Jsq0RMWMVYKqXXol04Stpao8hMcClSM9AliFdulSq5O0zEXWZyWTCrFmz0NTUhA8//BB79uzBypUr8eijj2Lt2rVhbRsDFhH1HCpNcPeImZs8wld1gBExx6e11fGE/ktAzX/b3p9C6X5chWfwiu3nMUqWwWeIUY83NF3G98h2w/F/+tOfory8HEuWLMFNN92ESZMmYffu3Vi3bh0mT56MO++8M0QtvTw+Bwt8DhZRnyQc75cMOBrmmDdWSSNmwhbcPlW6Nr4p6RPKdDEh7RpRsHryc7DefvttzJgxA+PGjcPevXuhVktjRqdPn8aIESNgs9lw6NAhDB482G9bPgeLiChUFAr3S8TThrddz26TnqbfUOkdvHzDWPMF6YGudd9IU3t0ce6b9Nt6fEVMPz7IlagNFRUVmD9/PhISErBt2zZXuAKAgQMHYuPGjcjPz8fs2bOxb98+aDTd/wgYBiwiovYoVdIDVGPT269nNXl8KzJQGHMsmxulb1aajEDtl+3vMyql7fvCnN+gjErhYyuozxk0aBAuXrzY5vrp06cj3BfoGLCIiOSg1gGJmdLUHlNDG+Gr0vt+MZsZaK6VpnP/bnt/SnWA+8Oc8x5P2Y9K5o36RN2IAYuIqDvpYqWpvafqCyG9a9LzG5KBwlhjjfT8MONZaWqPQgVEpzreKenzrknneyad63iPGFGXMWAREUUahcL9INd+2W3Xs1k9npwf4L4w52uNmmqlG/Ubq6XpcjTRHgEszSeEeZRFpwIq/meEKBD+zSAi6qlUaiC+vzS1x2aRQlbjOXfocr5f0lnmfBG4pVl6htjFE9LULgUQneIOXdFp0nJ0qseU7J7nS7+pD2HAIiLq7VQa6Ub5uIzL1zU1egQxzxDmfPG3Y11TDSDs0tP1m84D54JohzbGJ4D5hjGPZUMSR8eoR+OfXiIictPFSFPykPbr2W3SfWKN1e7w1VzrCFy17uDlnLeZpW9QmhuBS6eCaIjjMRqeI2FRyVLwikoGopI85hOlT10cH/RKEYMBi4iIOk6pcr/eCNe2X9f50m+/4OW57BHGmi8AEEDLRWmqPRZkm9RSKHMFMefkuewT0vTx/HYlhUREBqySkhI8/fTTqKqqwjXXXIM1a9YgNze3zfomkwkrVqzAK6+8gurqagwYMACPPfYY5s+f342tJiKigDxf+n25kTHAPTrmG75aLkrlLRelENbssWxplr5R6azfEdpYwJDgaKPj03O5vXUaA0fNKKCIC1jbt29HQUEBSkpKMGHCBKxfvx5Tp07FkSNHMGjQoIDbzJw5E+fOncOGDRvw7W9/GzU1NbBard3cciIikoXX6FiQLC3+4csZyJodZS2e85ekUTUAMDdIU/3pTrRV4x/A9HHS/Wa6OMdjOWLcj+fQxrrndY462hg+tb8Xirh3EY4ZMwajRo3yegv28OHDkZ+fj+LiYr/6H3zwAWbPno0TJ04gKSmpU8fkuwiJiPogmwVorZemljrp3ZStdT7Lzvl6/+Vg31EZDJXOJ4w5gpc2CtA4Js95jQHQRkufGsenNspj3vGpNrT7pP+e/C7Cruhz7yI0m804ePAglixZ4lWel5eHAwcOBNzm3XffxejRo/HUU0/h5ZdfRnR0NG6//Xb8+te/hsHArwQTEVEbVBrHNxdTOr6tENIN+4HCl8kxImZyTo3uebNPmbVF2p/NBDSbpC8KyE1tcIQtvTRSptYDKq309oGo/sCVC4BLakCnBhRKxyVPhXteoQDgMa9QSusBj7qKNsrgvV7hWPZaD/e2PrM+C95lCt99RJaICli1tbWw2WxIT/d+51d6ejqqqwM/HO/EiRPYv38/9Ho93nrrLdTW1uKRRx7BxYsXsXHjxoDbmEwmmEwm17LRaJSvE0RE1PspFO5LfRjY+f3YrP6hyzOIWVoAc5Pj+WTO+RbpWWWWFsDc7Fjns94Z3ABp3nPZU0w1kHU3YGkAROSGlYASMqUvKkSoiApYTgqfRCqE8CtzstvtUCgUePXVVxEfHw8AePbZZ3HnnXfixRdfDDiKVVxcjKKiIvkbTkRE1BEqxzcfDYny7tdud4cuZxizmqTHZVhbAavj02IHRDIQkwFo1QDs0uiccHzCY17YHcvC4xPuZQjpw7OO53rXHUk+63upiApYKSkpUKlUfqNVNTU1fqNaThkZGejfv78rXAHSPVtCCJw5cwZXXun/vq+lS5eisLDQtWw0GjFwYBf+BUJERBRJlEr3M83QzpcFWluBkyelZ4mF6x4sr1vBRYDZQEFMOC5VRq6Iap1Wq0VOTg7Kysq8ysvKyjB+/PiA20yYMAGVlZVobGx0lX355ZdQKpUYMGBAwG10Oh3i4uK8JiIiIgoD171dzvu+HJPSOan8pv/78isolCpMmjSpzd1ee+210Gg0bd5iFGoRFbAAoLCwEH/4wx+wceNGHD16FI8++igqKiqwcOFCANLo07333uuqf/fddyM5ORn3338/jhw5gr179+JnP/sZ5s+fz5vciYiIeqFhw4Zh4sSJ+Oijj/Dll1/6rf/444/xn//8B9OnT0e/fv3C0MIIDFizZs3CmjVrsGLFCowYMQJ79+7Fzp07kZmZCQCoqqpCRUWFq35MTAzKyspQV1eH0aNH45577sFtt92GF154IVxdICIiohB75JFHAAClpaV+69avXw8AePjhh7u1TZ4i7jlY4cDnYBERUV/k9zyod38E1BwNX4PShgO3/y6oqlarFZmZmTCbzThz5gx0Oh0A4NKlS7jiiivQv39/HD9+POCX5Prcc7CIiIgojGqOAmf+Fe5WBEWtVuPBBx9EUVER3nzzTcyZMwcAsGXLFrS2tuKhhx5q8wkE3SHiLhESERERBePBBx+EWq32ukxYWloKrVaL+++/P4wt4wgWERER9VD9+/fH7bffjjfffBPHjh3DuXPncPToUcyePRupqR14l2UIcASLiIiIeizPm90j4eZ2J45gERERkSRteI87/uTJkzF06FBs3rwZTU1NGDp0KG688Ub529ZBDFhEREQkCfIbfJFm4cKFePTRRwFExugVwEuERERE1MPNmzcPSqUSer0e8+bNC3dzADBgERERUQ9XXl4Ou92Ou+66C0lJSeFuDgAGLCIiIurhnnrqKQDAD3/4wzC3xI33YBEREVGP88UXX+Cdd97BwYMH8eGHH2L69On47ne/G+5muTBgERERUY/z+eef44knnkBcXBxmzZqFkpKScDfJCwMWERER9Tj33Xcf7rvvvnA3o028B4uIiIhIZgxYRERERDJjwCIiIiKSGQMWERERkcwYsIiIiIhkxoBFREREJDMGLCIiIiKZMWARERERyYwBi4iIiEhmERmwSkpKkJWVBb1ej5ycHOzbt6/Nurt374ZCofCb/u///q8bW0xERETkFnEBa/v27SgoKMBjjz2G8vJy5ObmYurUqaioqGh3u2PHjqGqqso1XXnlld3UYiIiIupugwcPDjjA4pzC/RqdiHsX4bPPPosFCxbggQceAACsWbMGH374IdauXYvi4uI2t0tLS0NCQkI3tZKIiIjCqaCgAHV1dX7lf/7zn/H5558jKiqq+xvlIaICltlsxsGDB7FkyRKv8ry8PBw4cKDdbUeOHInW1lZcffXV+NWvfoWJEye2WddkMsFkMrmWjUZj1xpORERE3aqgoMCvrKysDCtXrsS3v/1trFixovsb5SGiAlZtbS1sNhvS09O9ytPT01FdXR1wm4yMDJSWliInJwcmkwkvv/wyJk+ejN27d+P//b//F3Cb4uJiFBUVyd5+IiKinmz5geU4Xnc8bMe/MuFKLB+/vFPb/uc//8Gdd96J+Ph47Ny5EykpKfI2roMiKmA5KRQKr2UhhF+Z09ChQzF06FDX8rhx43D69Gk888wzbQaspUuXorCw0LVsNBoxcOBAGVpORETUcx2vO44vzn8R7mZ0WFVVFaZNmwaTyYT33nsvIu7Djqib3FNSUqBSqfxGq2pqavxGtdozduxYHD/edgLX6XSIi4vzmoiIiKjnaWpqwq233orTp09j06ZNyM3NDXeTAERYwNJqtcjJyUFZWZlXeVlZGcaPHx/0fsrLy5GRkSF384iIiCiC2O12zJkzB59//jmefPJJzJkzJ9xNcom4S4SFhYWYO3cuRo8ejXHjxqG0tBQVFRVYuHAhAOny3tmzZ7F161YA0rcMBw8ejGuuuQZmsxmvvPIKduzYgR07doSzG0RERBRiBQUF+POf/4z58+fjl7/8Zbib4yXiAtasWbNw4cIFrFixAlVVVcjOzsbOnTuRmZkJQLrO6vlMLLPZjJ/+9Kc4e/YsDAYDrrnmGvzlL3/BLbfcEq4uEBER9UhXJoT33qWOHH/NmjX43e9+h8mTJ2PdunUhbFXnKIQQItyNCDej0Yj4+HjU19fzfiwiIuozWltbcfLkSdfbU3qK6upq9O/fH0IILF68GPHx8X51RowYgfz8/IDbt9dvuTJBxI1gEREREbWntbUVdrsdgDSSFci8efPaDFjdgQGLiIiIepTBgwcj0i/ARdS3CImIiIh6AwYsIiIiIpkxYBERERHJjAGLiIiISGYMWEREREQyY8AiIiIikplsActqteJvf/sb1q9fj4aGBgBAZWUlGhsb5ToEERERhYDzmVJ9RXf0V5bnYH3zzTe4+eabUVFRAZPJhJtuugmxsbF46qmn0NraGpGPsCciIurrtFotlEolKisrkZqaCq1WC4VCEe5mhYwQAmazGefPn4dSqYRWqw3ZsWQJWIsXL8bo0aNx+PBhJCcnu8pnzJiBBx54QI5DEBERkcyUSiWysrJQVVWFysrKcDen20RFRWHQoEFQKkN3p5QsAWv//v34+OOP/ZJgZmYmzp49K8chiIiIKAS0Wi0GDRoEq9UKm80W7uaEnEqlglqtDvlInSwBy263B/ylnDlzBrGxsXIcgoiIiEJEoVBAo9FAo9GEuym9hixjYzfddJPXyxYVCgUaGxuxbNky3HLLLXIcgoiIiKjHUAgZ3pZYWVmJiRMnQqVS4fjx4xg9ejSOHz+OlJQU7N27F2lpaXK0NWSMRiPi4+NRX1+PuLi4cDeHiIiIwkSuTCDLJcIrrrgChw4dwrZt2/D555/DbrdjwYIFuOeee2AwGOQ4BBEREVGPIcsIVk/HESwiIiICImwEa+vWre2uv/fee+U4DBEREVGPIMsIVmJioteyxWJBc3MztFotoqKicPHixa4eIqQ4gkVERESAfJlAlm8RXrp0yWtqbGzEsWPHcP3112Pbtm1yHIKIiIioxwjZI0yvvPJKrF69GosXL+7wtiUlJcjKyoJer0dOTg727dsX1HYff/wx1Go1RowY0eFjEhEREckldM+Ih/S01I4+en/79u0oKCjAY489hvLycuTm5mLq1KmoqKhod7v6+nrce++9mDx5cleaTERERNRlstyD9e6773otCyFQVVWF3//+9xg4cCDef//9oPc1ZswYjBo1CmvXrnWVDR8+HPn5+SguLm5zu9mzZ+PKK6+ESqXC22+/jUOHDgV9TN6DRURERECEfYswPz/fa1mhUCA1NRWTJk3Cb3/726D3YzabcfDgQSxZssSrPC8vDwcOHGhzu02bNuHrr7/GK6+8gieffLJDbQ+12kYTNn18EgoooFQAUEifCiigUECad7wPSanwKHOsVygUcGzmWu9X5ph3lrvrSfOAtM65X6VjHVzz7jLf43ruy91mR5ljv77tcB/Ts0/+7fRsk+sYgco82ulsExTe/Xcex/lz9O5X730zPBERRSbZ3kUoh9raWthsNqSnp3uVp6eno7q6OuA2x48fx5IlS7Bv3z6o1cF1x2QywWQyuZaNRmPnG30ZF5vMePGjr0O2fwqOUuEMXt7h0zMA+oayYLdxBkqlQgGl0hn23Os8A6BnHdc2igDb+Hx61nGGcN9tXCFUpm2UjhCtVLaxTRt9ViDAz1Dps43vz1npHbp9f86BfkeB1wfu0+V+nwziRCQ3WQKW3HxPdEKIgCc/m82Gu+++G0VFRbjqqquC3n9xcTGKioq63M5gJBg0uG/8YACAXQgIAQgI2AUgXZwVsNu9ywQc9YSjDNK85zrnvuyOfbjKAMd+hPcxPda79+W53rnOc9/SPi67raMP7fbRsz8ex3L30d1OAf96XWV39afPP1eX2tFuKHOuV/oHRK9Q6QyccI+2Bhrh9Q2I7gAaeCTXs77f9vAMlY72KL1HpF2B2adNXsf33N4jdHqNrjvre4yG+7dB4QrnftsHapOyje192xqwT5cZlfftJxSu37VjE2nZuV+4++1edlf0q+Mqc4+iI0CZ57LCow4868DdXoVPu+BZ5lGnQ/3x3MarXe59Bmp7wP74bOPZPmcb+7pO34NVWFgYdN1nn302qHpmsxlRUVF4/fXXMWPGDFf54sWLcejQIezZs8erfl1dHRITE6FSqVxldrsdQgioVCr89a9/xaRJk/yOE2gEa+DAgbwHK4IJ4RsihSt42X3WCbt3SPP8tAvhFzrtPnWcgdFzv54B0y4Auz3ANq5w6rE9fI/tXHYHZNc2wjvwhnwbZ9vsAbYBOtkf/5/35dvmvW172zh/93Z7gG3gf1wiijxeQcyrXBGw3H8baeG3M/8Ht/3PFbK3L+z3YJWXlwdVryMpVqvVIicnB2VlZV4Bq6ysDNOnT/erHxcXh3//+99eZSUlJdi1axfeeOMNZGVlBTyOTqeDTqcLul0Ufq5/2fr9tSMKzHe0Nbgg5x++O7ON3fPYdncwhCPseo1Ee7TVM5zCYxTYv1472zu2g98/HNr+h0q727c3uu4aGW6vTd77Fj5tcv9c2tke7p+Nsx2eI/8I1CeffXiO7Et/PtztkX7a7hCPAGXueu7ft9efNY99uvfvHsX3LnPWco/kB31cr3refXVvG9RfkbDx+tm1taL9PQBw/9mLVJ0OWB999JGc7XApLCzE3LlzMXr0aIwbNw6lpaWoqKjAwoULAQBLly7F2bNnsXXrViiVSmRnZ3ttn5aWBr1e71dORH2LM5QDgIrBnPogV+hqK9h5BEzfMuGxD1doCxT2fI4F+IQm+AaqwOnKe18+23us9VyXEKVBJIu4e7BmzZqFCxcuYMWKFaiqqkJ2djZ27tyJzMxMAEBVVdVln4lFRETU13neS+YoCVtb+iJZnoMFAP/617/w+uuvo6KiAmaz2Wvdm2++KcchQobPwSIiIiIgwt5F+Nprr2HChAk4cuQI3nrrLVgsFhw5cgS7du1CfHy8HIcgIiIi6jFkCVirVq3Cc889h/feew9arRbPP/88jh49ipkzZ2LQoEFyHIKIiIiox5AlYH399deYNm0aAOkbek1NTVAoFHj00UdRWloqxyGIiIiIegxZAlZSUhIaGhoAAP3798d//vMfANJzqpqbm+U4BBEREVGP0aWA5Xyhcm5uLsrKygAAM2fOxOLFi/Hggw9izpw5mDx5cpcbSURERNSTdOkxDaNGjcLIkSORn5+POXPmAJCeU6XRaLB//37ccccdePzxx2VpKBEREVFP0aXHNHzyySfYuHEj/vSnP8FiseCOO+7AggULMHHiRDnbGHJ8TAMREREBEfKYhnHjxuGll15CdXU11q5dizNnzmDKlCkYMmQIVq5ciTNnznRl90REREQ9kiw3uRsMBsybNw+7d+/Gl19+iTlz5mD9+vXIysrCLbfcIschiIiIiHoM2Z7k7qmxsRGvvvoqfvnLX6Kurg42m03uQ8iKlwiJiIgIkC8TyPouwj179mDjxo3YsWMHVCoVZs6ciQULFsh5CCIiIqKI1+WAdfr0aWzevBmbN2/GyZMnMX78ePzud7/DzJkzER0dLUcbiYiIiHqULgWsm266CR999BFSU1Nx7733Yv78+Rg6dKhcbSMiIiLqkboUsAwGA3bs2IFbb70VKpVKrjYRERER9WhdCljvvvuuXO0gIiIi6jVkeUwDEREREbkxYBERERHJjAGLiIiISGYMWEREREQyY8AiIiIikllEBqySkhJkZWVBr9cjJycH+/bta7Pu/v37MWHCBCQnJ8NgMGDYsGF47rnnurG1RERERN5kfVWOHLZv346CggKUlJRgwoQJWL9+PaZOnYojR45g0KBBfvWjo6Pxwx/+ENdddx2io6Oxf/9+PPzww4iOjsZDDz0Uhh4QERFRXxeSlz13xZgxYzBq1CisXbvWVTZ8+HDk5+ejuLg4qH3ccccdiI6OxssvvxxUfb7smYiIiAD5MkFEXSI0m804ePAg8vLyvMrz8vJw4MCBoPZRXl6OAwcO4IYbbghFE4mIiIguK6IuEdbW1sJmsyE9Pd2rPD09HdXV1e1uO2DAAJw/fx5WqxXLly/HAw880GZdk8kEk8nkWjYajV1rOBEREZGHiBrBclIoFF7LQgi/Ml/79u3DZ599hnXr1mHNmjXYtm1bm3WLi4sRHx/vmgYOHChLu4mIiIiACBvBSklJgUql8hutqqmp8RvV8pWVlQUAuPbaa3Hu3DksX74cc+bMCVh36dKlKCwsdC0bjUaGLCIiIpJNRI1gabVa5OTkoKyszKu8rKwM48ePD3o/QgivS4C+dDod4uLivCYiIiIiuUTUCBYAFBYWYu7cuRg9ejTGjRuH0tJSVFRUYOHChQCk0aezZ89i69atAIAXX3wRgwYNwrBhwwBIz8V65pln8KMf/ShsfSAiIqK+LeIC1qxZs3DhwgWsWLECVVVVyM7Oxs6dO5GZmQkAqKqqQkVFhau+3W7H0qVLcfLkSajVagwZMgSrV6/Gww8/HK4uEBERUR8Xcc/BCgc+B4uIiIiAXvocLCIiIqLegAGLiIiISGYMWEREREQyY8AiIiIikhkDFhEREZHMGLCIiIiIZMaARURERCQzBiwiIiIimTFgEREREcmMAYuIiIhIZgxYRERERDJjwCIiIiKSGQMWERERkcwYsIiIiIhkxoBFREREJDMGLCIiIiKZMWARERERyYwBi4iIiEhmDFhEREREMmPAIiIiIpIZAxYRERGRzCIyYJWUlCArKwt6vR45OTnYt29fm3XffPNN3HTTTUhNTUVcXBzGjRuHDz/8sBtbS0REROQt4gLW9u3bUVBQgMceewzl5eXIzc3F1KlTUVFREbD+3r17cdNNN2Hnzp04ePAgJk6ciNtuuw3l5eXd3HIiIiIiiUIIIcLdCE9jxozBqFGjsHbtWlfZ8OHDkZ+fj+Li4qD2cc0112DWrFl44okngqpvNBoRHx+P+vp6xMXFdardRERE1PPJlQkiagTLbDbj4MGDyMvL8yrPy8vDgQMHgtqH3W5HQ0MDkpKS2qxjMplgNBq9JiIiIiK5qMPdAE+1tbWw2WxIT0/3Kk9PT0d1dXVQ+/jtb3+LpqYmzJw5s806xcXFKCoq6lJbiYiIIp1d2NFqbYXJZkKrtRUtthaYbWbXZLFbYLFb3GV2s2vZYrN4LTvre37ahE2a7DavebuwwyqssNvtbdZxztuF3fUJxzU14fyfkD4BwHnBzVm+Mnclbh58c7h+tJcVUQHLSaFQeC0LIfzKAtm2bRuWL1+Od955B2lpaW3WW7p0KQoLC13LRqMRAwcO7HyDiYiIOslqt6LJ0oRmSzOaLE1osjZ5LTdbm9FibUGrtVUKSdYWtNpaYbKa0GJzl7favNc7g1VvZbfbw92EdkVUwEpJSYFKpfIbraqpqfEb1fK1fft2LFiwAK+//jqmTJnSbl2dTgedTtfl9hIRUd9ltplhNBvRaG5Eg7kBDeYGGC1GNJgbXGXN1mZ3WLJ6hCiPAGW2m7ulvTqVzjVpVVpolBpoVBpolVpoVVpolVqoVWqvZa1KC7VS7bWsUWpcn2qlGiqFCkqFEmqlGkqFEiqlCmqF2rtMoZImpSrgvFKhhEKhgAIK14CKYwnS/xWu9c518br4bvm5dVZEBSytVoucnByUlZVhxowZrvKysjJMnz69ze22bduG+fPnY9u2bZg2bVp3NJWIiHo4i92CelM9jCYjjGajd1iyNMBo9g5LDWaprNEiLcs9OqRRahCtiUa0JhpRmihEqx2fmmgY1AYY1AboVXro1dLkXNapdTCoDK5yvVrvvazSQ6fSQaVUydpeal9EBSwAKCwsxNy5czF69GiMGzcOpaWlqKiowMKFCwFIl/fOnj2LrVu3ApDC1b333ovnn38eY8eOdY1+GQwGxMdHdrolIqKus9ltaDA3oM5Uh3pzPepN9dK8x6dzqjPVwWg2os5UhyZLkyzHj9XEIkYbg1htrDRppE9nWHIFJueyR3ByBqloTTQ0Ko0s7aHIEHEBa9asWbhw4QJWrFiBqqoqZGdnY+fOncjMzAQAVFVVeT0Ta/369bBarVi0aBEWLVrkKp83bx42b97c3c0nIqIuEELAaDbiUuslXDJdwsXWi9J8q2PedEkKSSajKzw1mBtcN0J3lAIKxGpjEaeN8/r0DExx2jjEaHyWHeuj1dEcGaKAIu45WOHA52AREYWGzW5DvbneHZCcYcnknvdcrmutg1VYO3WsGE0M4nXx0qSNR4IuAXG6OCToEpCgS3Cv00nr4rXxiNXGMiCRF7kyQcSNYBERUWQz2Uy40HIBF1ouoLalFhdavec9g1Sdqa5To0vRmmgk6hKRpE9Coj7RNSXpktwBSecOUfG6eGiUvMRGkYMBi4iIvELThVZHWPKZv9h6EbUttWi0NHZ4/3HaOHdY0jnCkkd4StJ5Bymdit/0pp6NAYuIqJey2CyobakNOMrkDE/OUNVgaejQvjVKDZINyUjRpyDZkCxNevenKzjpkzi6RH0SAxYRUQ9jtplR21KLmuaawJ8tNahtrsUl06UO7dcZmpL1yUgxpHiHJp/yWE1sUA+AJuqrGLCIiCKEyWbC+ebzqG2pxfmW820GqDpTXdD7VCvVfoGprfAUp41jaCKSCQMWEVGItVpbcb7lfPujTs01MJqDf/G8RqlBqiEVqVGp7X7G6+KhVChD2DsiCoQBi4iok1qsLahtdow2OS7LBfpsMAd/f5NWqW07NPkEJ442EUUuBiwiIh/NluaAo0znW87jfPN512dHbgzXqXRIMaQgLSot8KchDalRqbxMR9RLMGARUZ/RbGlu994m52dHHkOgV+kve5kuNSqVN4UT9TEMWETUowkh0GRp8hpdcoYl57yzvCPvnjOoDUg1pLY56uQMTjGaGAYnIvLDgEVEEUkIgQZLg9clOd9P52W7FmtL0Ps1qA1el+VSogJ/RmuiGZyIqNMYsIioWwkhUG+ql0JSgODkeanOZDMFvd9oTbRrVMnznibfS3XRmugQ9o6ISMKARUSysAs76kx1bY40Ob9Vd77lPCx2S9D7jdXGtvlNOs/LdlGaqBD2joioYxiwiKhNzst0rleseLybzvUKFserVi62XoRVWIPed7wu3i8weX6mGFKQakiFXq0PYQ+JiEKDAYuoD2q2NHu9m875fjrn/MWWi655s93coX0n6ZOkcHSZESetShui3hERhR8DFlEvIIRAo6URF1sv4lLrJVxolUaUnEHJGZ6cgarZ2tyh/cdoYvxeteKcnK9aSdGnIEmfBI2KL/UlImLAIopAQgi0WFtwofUCLrVeksKSx+Qsc4apS62XOnRfEyA9vynZ4BOWHO+mcwYnZxkv0xERdQwDFlE3sNltqDfXo85Uh3pTPepa61BnkqZAweli68UOfYPOKUodhSR9EpIMSUjSSZ/OkOQ54pRiSEGUOoqPISAiChEGLKIOMtlMuNR6SQpKjpDknPcs91zfkZf4etKr9FJg0ichUZ/oF54SdYmu5UR9IkeaiIgiBAMW9TlCCJhsJhjNRhhNRjRYGmA0GaVlsxEN5gb3p8f6enM96k31HXqopa9YbSwSdAlI0CUgXhcvBSTP8OScHOGJjx4gIuqZIjJglZSU4Omnn0ZVVRWuueYarFmzBrm5uQHrVlVV4Sc/+QkOHjyI48eP48c//jHWrFnTvQ2mbiOEgNluRqO5Ec2WZjRaGtFocc83WZrQZGlyhSSv0GRyh6eO3q/kS6VQIV4X7wpLCboEJOgTXGWJukSv9fG6eMTr4qFWRuRfOSIiklnEne23b9+OgoIClJSUYMKECVi/fj2mTp2KI0eOYNCgQX71TSYTUlNT8dhjj+G5554LQ4upLUIIWOwWtFhb2pxara2ued+Q5DnvuWy1B/+spfaoFCrEamMRq41FnDbO+1MXhzite3KuS9BLgYnvnyMiovYohBAi3I3wNGbMGIwaNQpr1651lQ0fPhz5+fkoLi5ud9sbb7wRI0aM6PAIltFoRHx8POrr6xEXF9eZZkcku7DDZrfBKqyw2q1e82abGSabCWabGWa7e95V1sZ63zqtttZ2Q5NN2ELWvyh1FGI0MYjWRiNaHY1obbS0rIluOzg5Q5Mujjd5ExGRH7kyQUSNYJnNZhw8eBBLlizxKs/Ly8OBAwdkO47JZILJ5P6GltHYuRuQg1HZWImVn66EEALO/0FI4cdzWUC4yxyZ17MMArDYLbAJm1dQstqt7jK71R2mhA12YQ9ZvzpKrVTDoDbAoDLAoDFI845Jr9LDoDG4A5MmGjHaGGlZ61h2lDvnozRRUCqU4e4WERFRQBEVsGpra2Gz2ZCenu5Vnp6ejurqatmOU1xcjKKiItn2154mSxP2ntnbLccKlkapgU6lg1alhValhU6lc5XpVDpoVB7zHnV9t9EqpXmDWgpHBrV3eHIGJ4PaAI2SD58kIqK+I6IClpPvZRshhKyXcpYuXYrCwkLXstFoxMCBA2Xbv6e0qDSsGL8CgNQvBRSukRfnsqtMAdeyQqGAEt5laqXaNakUKulTqYJa4V3mWcd3vUqpCkk/iYiIyC2iAlZKSgpUKpXfaFVNTY3fqFZX6HQ66HQ62fbXnnhdPGZcOaNbjkVERESRIaJuYtFqtcjJyUFZWZlXeVlZGcaPHx+mVhERERF1TESNYAFAYWEh5s6di9GjR2PcuHEoLS1FRUUFFi5cCEC6vHf27Fls3brVtc2hQ4cAAI2NjTh//jwOHToErVaLq6++OhxdICIioj4u4gLWrFmzcOHCBaxYsQJVVVXIzs7Gzp07kZmZCUB6sGhFRYXXNiNHjnTNHzx4EH/84x+RmZmJU6dOdWfTiYiIiABE4HOwwqG3PgeLiIiIOkauTBBR92ARERER9QYMWEREREQyi7h7sMLBeZU0lE90JyIiosjnzAJdvYOKAQtAQ0MDAITsYaNERETUszQ0NCA+Pr7T2/MmdwB2ux2VlZWIjY0Nyct/nU+KP336dJ+4ib4v9bcv9RVgf3u7vtTfvtRXgP3tCCEEGhoacMUVV0Cp7PydVBzBAqBUKjFgwICQHycuLq5P/MF26kv97Ut9Bdjf3q4v9bcv9RVgf4PVlZErJ97kTkRERCQzBiwiIiIimTFgdQOdTodly5Z12wumw60v9bcv9RVgf3u7vtTfvtRXgP0NB97kTkRERCQzjmARERERyYwBi4iIiEhmDFhEREREMmPA6oSSkhJkZWVBr9cjJycH+/bta7f+nj17kJOTA71ej29961tYt26dX50dO3bg6quvhk6nw9VXX4233norVM3vMLn7+9JLLyE3NxeJiYlITEzElClT8M9//jOUXeiQUPx+nV577TUoFArk5+fL3OrOC0V/6+rqsGjRImRkZECv12P48OHYuXNnqLoQtFD0dc2aNRg6dCgMBgMGDhyIRx99FK2traHqQod0pL9VVVW4++67MXToUCiVShQUFASs11vOVcH0tzedq4L9/TpF2rkqFH0N+XlKUIe89tprQqPRiJdeekkcOXJELF68WERHR4tvvvkmYP0TJ06IqKgosXjxYnHkyBHx0ksvCY1GI9544w1XnQMHDgiVSiVWrVoljh49KlatWiXUarX4xz/+0V3dalMo+nv33XeLF198UZSXl4ujR4+K+++/X8THx4szZ850V7faFIr+Op06dUr0799f5ObmiunTp4e4J8EJRX9NJpMYPXq0uOWWW8T+/fvFqVOnxL59+8ShQ4e6q1sBhaKvr7zyitDpdOLVV18VJ0+eFB9++KHIyMgQBQUF3dWtNnW0vydPnhQ//vGPxZYtW8SIESPE4sWL/er0pnNVMP3tTeeqYPrrFGnnqlD0tTvOUwxYHfTd735XLFy40Kts2LBhYsmSJQHr//znPxfDhg3zKnv44YfF2LFjXcszZ84UN998s1ed733ve2L27NkytbrzQtFfX1arVcTGxootW7Z0vcFdFKr+Wq1WMWHCBPGHP/xBzJs3LyJOWkKEpr9r164V3/rWt4TZbJa/wV0Qir4uWrRITJo0yatOYWGhuP7662Vqded1tL+ebrjhhoD/UepN5ypPbfXXV08+V3lqr7+ReK4KRV+74zzFS4QdYDabcfDgQeTl5XmV5+Xl4cCBAwG3+eSTT/zqf+9738Nnn30Gi8XSbp229tldQtVfX83NzbBYLEhKSpKn4Z0Uyv6uWLECqampWLBggfwN76RQ9ffdd9/FuHHjsGjRIqSnpyM7OxurVq2CzWYLTUeCEKq+Xn/99Th48KDrstGJEyewc+dOTJs2LQS9CF5n+huM3nSu6oyefK4KVqSdq0LV1+44T/FdhB1QW1sLm82G9PR0r/L09HRUV1cH3Ka6ujpgfavVitraWmRkZLRZp619dpdQ9dfXkiVL0L9/f0yZMkW+xndCqPr78ccfY8OGDTh06FComt4poerviRMnsGvXLtxzzz3YuXMnjh8/jkWLFsFqteKJJ54IWX/aE6q+zp49G+fPn8f1118PIQSsViv+93//F0uWLAlZX4LRmf4GozedqzqjJ5+rghGJ56pQ9bU7zlMMWJ2gUCi8loUQfmWXq+9b3tF9dqdQ9NfpqaeewrZt27B7927o9XoZWtt1cva3oaEBP/jBD/DSSy8hJSVF/sbKQO7fr91uR1paGkpLS6FSqZCTk4PKyko8/fTTYQtYTnL3dffu3Vi5ciVKSkowZswYfPXVV1i8eDEyMjLw+OOPy9z6jgvFeaU3nas6ojecq9oT6ecquX+33XGeYsDqgJSUFKhUKr/UXFNT45eunfr16xewvlqtRnJycrt12tpndwlVf52eeeYZrFq1Cn/7299w3XXXydv4TghFf//73//i1KlTuO2221zr7XY7AECtVuPYsWMYMmSIzD0JTqh+vxkZGdBoNFCpVK46w4cPR3V1NcxmM7Rarcw9ubxQ9fXxxx/H3Llz8cADDwAArr32WjQ1NeGhhx7CY489BqUyPHdhdKa/wehN56qO6A3nqsv5+uuvI/JcFarfbXecp3gPVgdotVrk5OSgrKzMq7ysrAzjx48PuM24ceP86v/1r3/F6NGjodFo2q3T1j67S6j6CwBPP/00fv3rX+ODDz7A6NGj5W98J4Siv8OGDcO///1vHDp0yDXdfvvtmDhxIg4dOoSBAweGrD+XE6rf74QJE/DVV1+5Ts4A8OWXXyIjIyMs4QoIXV+bm5v9QpRKpYKQvkAkYw86pjP9DUZvOlcFq7ecqy4nUs9Vofrddst5KmS3z/dSzq+LbtiwQRw5ckQUFBSI6OhocerUKSGEEEuWLBFz58511Xd+1fvRRx8VR44cERs2bPD7qvfHH38sVCqVWL16tTh69KhYvXp1xH31Wc7+/uY3vxFarVa88cYboqqqyjU1NDR0e/98haK/viLlmzlChKa/FRUVIiYmRvzwhz8Ux44dE++9955IS0sTTz75ZLf3z1Mo+rps2TIRGxsrtm3bJk6cOCH++te/iiFDhoiZM2d2e/98dbS/QghRXl4uysvLRU5Ojrj77rtFeXm5+O9//+ta35vOVUJcvr+96VwlxOX76ytSzlWh6Gt3nKcYsDrhxRdfFJmZmUKr1YpRo0aJPXv2uNbNmzdP3HDDDV71d+/eLUaOHCm0Wq0YPHiwWLt2rd8+X3/9dTF06FCh0WjEsGHDxI4dO0LdjaDJ3d/MzEwBwG9atmxZN/Tm8kLx+/UUKSctp1D098CBA2LMmDFCp9OJb33rW2LlypXCarWGuiuXJXdfLRaLWL58uRgyZIjQ6/Vi4MCB4pFHHhGXLl3qht5cXkf7G+jvZWZmpled3nSuulx/e9u5Kpjfr6dIOleFoq+hPk8pHA0hIiIiIpnwHiwiIiIimTFgEREREcmMAYuIiIhIZgxYRERERDJjwCIiIiKSGQMWERERkcwYsIiIiIhkxoBFREREJDMGLCLqU5YvX44RI0aEuxlE1MvxSe5E1GsoFIp218+bNw+///3vYTKZkJyc3E2tIqK+iAGLiHqN6upq1/z27dvxxBNP4NixY64yg8GA+Pj4cDSNiPoYXiIkol6jX79+rik+Ph4KhcKvzPcS4X333Yf8/HysWrUK6enpSEhIQFFREaxWK372s58hKSkJAwYMwMaNG72OdfbsWcyaNQuJiYlITk7G9OnTcerUqe7tMBFFLAYsIurzdu3ahcrKSuzduxfPPvssli9fjltvvRWJiYn49NNPsXDhQixcuBCnT58GADQ3N2PixImIiYnB3r17sX//fsTExODmm2+G2WwOc2+IKBIwYBFRn5eUlIQXXngBQ4cOxfz58zF06FA0Nzfjl7/8Ja688kosXboUWq0WH3/8MQDgtddeg1KpxB/+8Adce+21GD58ODZt2oSKigrs3r07vJ0hooigDncDiIjC7ZprroFS6f73Znp6OrKzs13LKpUKycnJqKmpAQAcPHgQX331FWJjY73209raiq+//rp7Gk1EEY0Bi4j6PI1G47WsUCgCltntdgCA3W5HTk4OXn31Vb99paamhq6hRNRjMGAREXXQqFGjsH37dqSlpSEuLi7czSGiCMR7sIiIOuiee+5BSkoKpk+fjn379uHkyZPYs2cPFi9ejDNnzoS7eUQUARiwiIg6KCoqCnv37sWgQYNwxx13YPjw4Zg/fz5aWlo4okVEAPigUSIiIiLZcQSLiIiISGYMWEREREQyY8AiIiIikhkDFhEREZHMGLCIiIiIZMaARURERCQzBiwiIiIimTFgEREREcmMAYuIiIhIZgxYRERERDJjwCIiIiKSGQMWERERkcwYsIiIiIhkxoBFREREJDMGLCIiIiKZMWARERERyYwBi4iIiEhm/x8QOICgdFCADQAAAABJRU5ErkJggg==;" vertex="1" parent="1">
          <mxGeometry width="600" height="300" as="geometry" />
        </mxCell>
        <mxCell id="fROxqG9AHQ-otkXeG8tQ-3" value="" style="shape=image;verticalLabelPosition=bottom;labelBackgroundColor=default;verticalAlign=top;aspect=fixed;imageAspect=0;image=data:image/png,iVBORw0KGgoAAAANSUhEUgAAAlgAAAEsCAYAAAAfPc2WAAAAOXRFWHRTb2Z0d2FyZQBNYXRwbG90bGliIHZlcnNpb24zLjUuMSwgaHR0cHM6Ly9tYXRwbG90bGliLm9yZy/YYfK9AAAACXBIWXMAAA9hAAAPYQGoP6dpAABfvUlEQVR4nO3deXxM9/7H8dfMZJeILLIgxJbY99pVUWpr0WvropQqpRfVjfbXoi1aentdVVVK0aqldKGlrZ0Sat8bWyKWRERkX2fm/P44yRCJiJjJyfJ53sfczJw558znS51553u+53t0iqIoCCGEEEIIq9FrXYAQQgghRGkjAUsIIYQQwsokYAkhhBBCWJkELCGEEEIIK5OAJYQQQghhZRKwhBBCCCGsTAKWEEIIIYSVScASQgghhLAyCVhCCCGEEFYmAUsIIYQQwsokYAkhhBBCWJkELCGEEEIIK5OAJYQQQghhZRKwhBBCCCGsTAKWEKJA5s6di06no0GDBlqXkqepU6ei0+ls/jn9+vXD2dmZuLi4e67z3HPPYW9vz/Xr1wu8X51Ox9SpUx++wALu//Tp00ydOpXw8HCbfaYQZZkELCFEgSxZsgSAU6dOsX//fo2r0c6IESNIS0vj+++/z/P9+Ph4fvrpJ3r37o2vr28RV3dvISEhvPTSS5bXp0+fZtq0aRKwhLARCVhCiPs6ePAgx44do1evXgAsXrxY44psLyUlJc/lPXr0oFKlSpbAebeVK1eSmprKiBEjbFneA2vdujVVqlTRugwhygwJWEKI+8oOVB9//DFt27Zl1apVuQJIeHg4Op2OTz/9lM8++4zq1avj6upKmzZt2LdvX659Llq0iKCgIBwdHalXrx7ff/89w4YNIzAw0LLOjh070Ol07NixI8/PWrp0ab51r169mm7duuHv74+zszN169Zl0qRJJCcn51hv2LBhuLq6cuLECbp164abmxtdunTJc58Gg4GhQ4dy6NAhTpw4kev9b775Bn9/f3r06AFAVFQUo0aNokqVKjg4OFC9enWmTZuG0WjMt3aAkydP0qdPHzw8PHBycqJJkyYsW7Ys13pxcXG8/vrr1KhRA0dHR3x8fOjZsyf//POPZZ07TxEuXbqUAQMGANCpUyd0Op3lz/PDDz/Ezs6Oy5cv5/qc4cOH4+XlRVpa2n1rF6Ksk4AlhMhXamoqK1eu5JFHHqFBgwYMHz6cxMREfvjhhzzX/+KLL9i8eTNz5sxhxYoVJCcn07NnT+Lj4y3rLFy4kJdffplGjRrx448/8n//939MmzYtV5B6WOfOnaNnz54sXryY33//nQkTJrBmzRqefPLJXOtmZGTw1FNP0blzZ3755RemTZt2z/0OHz4cnU6Xqxfr9OnT/P333wwdOhSDwUBUVBQtW7bkjz/+4P3332fTpk2MGDGCmTNnMnLkyHxrDw0NpW3btpw6dYq5c+fy448/Uq9ePYYNG8asWbMs6yUmJtK+fXu++uorXnzxRTZs2MCCBQsICgoiMjIyz3336tWLGTNmAOrfV0hICCEhIfTq1YtRo0ZhZ2fHV199lWOb2NhYVq1axYgRI3Bycsq3diEEoAghRD6WL1+uAMqCBQsURVGUxMRExdXVVenQoUOO9cLCwhRAadiwoWI0Gi3L//77bwVQVq5cqSiKophMJsXPz09p1apVju0vXbqk2NvbK9WqVbMs2759uwIo27dvz/OzvvnmG8uyKVOmKPkd0sxms5KZmans3LlTAZRjx45Z3hs6dKgCKEuWLCnQn4miKErHjh0Vb29vJSMjw7Ls9ddfVwDl7NmziqIoyqhRoxRXV1fl0qVLObb99NNPFUA5deqUZRmgTJkyxfJ68ODBiqOjoxIREZFj2x49eiguLi5KXFycoiiK8sEHHyiAsnnz5nzrvXv/P/zwQ55/toqi/nn4+Pgo6enplmWffPKJotfrlbCwsHw/Rwihkh4sIUS+Fi9ejLOzM4MHDwbA1dWVAQMGsHv3bs6dO5dr/V69emEwGCyvGzVqBMClS5cAtWcmKiqKgQMH5tiuatWqtGvXzqq1X7x4kWeffRY/Pz8MBgP29vZ07NgRgDNnzuRa/1//+leB9z1ixAhiYmJYv349AEajke+++44OHTpQu3ZtAH799Vc6depEpUqVMBqNlkf26cOdO3fec//btm2jS5cuBAQE5Fg+bNgwUlJSCAkJAWDTpk0EBQXx+OOPF7j2+xk/fjzR0dGWXkqz2cyXX35Jr169cpzCFULcmwQsIcQ9nT9/nl27dtGrVy8URSEuLo64uDj69+8PkOdAby8vrxyvHR0dAfVUI8DNmzcB8rzCzppX3SUlJdGhQwf279/PRx99xI4dOzhw4AA//vhjjnqyubi4UL58+QLvv3///ri7u/PNN98AsHHjRq5fv55jcPv169fZsGED9vb2OR7169cHICYm5p77v3nzJv7+/rmWV6pUyfI+wI0bN6w+eL1p06Z06NCBL774AlCDYnh4OK+++qpVP0eI0sxO6wKEEMXXkiVLUBSFtWvXsnbt2lzvL1u2jI8++ihHj9X9ZAewvOaIioqKyvE6e6xPenp6juX5BZNs27Zt49q1a+zYscPSawXcc/6qB51Dy9nZmWeeeYZFixYRGRnJkiVLcHNzswweB/D29qZRo0ZMnz49z31kh6W8eHl55TmG6tq1a5Z9A1SsWJErV648UO0FMW7cOAYMGMDhw4eZN28eQUFBdO3a1eqfI0RpJT1YQog8mUwmli1bRs2aNdm+fXuux+uvv05kZCSbNm16oP0GBwfj5+fHmjVrciyPiIhg7969OZZln446fvx4juXZp+Xykx2YsnvQst09ePthjBgxApPJxOzZs9m4cSODBw/GxcXF8n7v3r05efIkNWvWpEWLFrke+QWsLl26WELinZYvX46LiwutW7cG1Gkjzp49y7Zt2x6o9rt7Fu/Wr18/qlatyuuvv86WLVsYM2ZMkUzkKkRpIT1YQog8bdq0iWvXrvHJJ5/w2GOP5Xq/QYMGzJs3j8WLF9O7d+8C71ev1zNt2jRGjRpF//79GT58OHFxcUybNg1/f3/0+tu/9/n5+fH4448zc+ZMPDw8qFatGlu3brWc5stP27Zt8fDwYPTo0UyZMgV7e3tWrFjBsWPHClzr/bRo0YJGjRoxZ84cFEXJNffVBx98wObNm2nbti3jxo0jODiYtLQ0wsPD2bhxIwsWLLjn6b0pU6ZYxnC9//77eHp6smLFCn777TdmzZqFu7s7ABMmTGD16tX06dOHSZMm0bJlS1JTU9m5cye9e/emU6dOee4/e0b+hQsX4ubmhpOTE9WrV7f0MBoMBsaOHcvbb79NuXLlGDZsmJX+1IQoG6QHSwiRp8WLF+Pg4MCLL76Y5/ve3t7069ePX3/99YFuCQPw8ssvs3DhQo4dO0a/fv2YNm0akyZNomnTplSoUCHHut9++y1dunTh7bffZsCAAVy9epWVK1fe9zO8vLz47bffcHFx4fnnn2f48OG4urqyevXqB6r1fkaMGIGiKNSrV49WrVrleM/f35+DBw/SrVs3Zs+eTffu3RkyZAhLliyhSZMmeHh43HO/wcHB7N27l+DgYMaOHUvfvn05efIk33zzDW+++aZlPTc3N/766y9GjBjBwoUL6dWrFyNHjiQ0NDTfHrLq1aszZ84cjh07xmOPPcYjjzzChg0bcqwzaNAgAIYMGWIJdEKIgtEpiqJoXYQQQsTFxREUFETfvn1ZuHCh1uUI4PPPP2fcuHGcPHnSMjBfCFEwcopQCFHkoqKimD59Op06dcLLy4tLly7x3//+l8TERMaPH691eWXekSNHCAsL44MPPqBPnz4SroQoBAlYQogi5+joSHh4OGPGjCE2NtYyaHvBggXyZV4M9OvXj6ioKDp06MCCBQu0LkeIEklOEQohhBBCWJkMchdCCCGEsDIJWEIIIYQQViYBSwghhBDCymSQeyGYzWauXbuGm5ubzGwshBBClCKKopCYmEilSpVyTHz8oCRgFcK1a9dy3eFeCCGEEKXH5cuXH+pG6hKwCsHNzQ1Q//DLly+vcTVCCCGEsJaEhAQCAgIs3/WFVeID1q5du5g9ezaHDh0iMjKSn376ib59++a7zc6dO5k4cSKnTp2iUqVKvPXWW4wePbrAn5l9WrB8+fISsIQQQohS6GGHAJX4Qe7Jyck0btyYefPmFWj9sLAwevbsSYcOHThy5AjvvPMO48aNY926dTauVAghhBBlRYnvwerRowc9evQo8PoLFiygatWqzJkzB4C6dety8OBBPv30U/71r3/ZqEohhBBClCUlvgfrQYWEhNCtW7ccy5544gkOHjxIZmamRlUJIYQQojQp8T1YDyoqKgpfX98cy3x9fTEajcTExODv759rm/T0dNLT0y2vExISbF6nEEIIIUquMteDBbkHrmXfjvFeA9pmzpyJu7u75SFTNAghhBAiP2WuB8vPz4+oqKgcy6Kjo7Gzs8PLyyvPbSZPnszEiRMtr7Mv4RRClFwms4kUYwrJmcmkZKaQac68/TDdfm4ym0AHOnTodXp06NDpdOjQYdAbcDI44WjnqP40OOJkp/50tnPGTl/mDrFCiCxl7l9/mzZt2LBhQ45lf/75Jy1atMDe3j7PbRwdHXF0dCyK8oQQhWA0G4lJjSE6JZrYtFhupd3iZtpNbqXd4lbaLWLTY4lPiycpM4nkzGSSMpNINabavK5y9uVwc3CjvEN5y8/yDuWp4FiBii4V8XL2wtvZG28nb7ydvXF3dJe7QwhRSpT4gJWUlMT58+ctr8PCwjh69Cienp5UrVqVyZMnc/XqVZYvXw7A6NGjmTdvHhMnTmTkyJGEhISwePFiVq5cqVUThBD3kWHK4ErSFS4nXOZy4mUikyOJSo7iesp1opKjiEmNwaSYCrVvO70dLnYuOBgcsNfbW35mP/Q6PUrW/1DArJhRUDArZkyKiXRTOmnGNNJMaaQb00kzpVn2nZyZTHJmMlHJUflUkLMWXxdfKrlWwr+cP5VdK1PJtRKVylWikmsl/Mr5Sa+YECVEif+XevDgQTp16mR5nX0qb+jQoSxdupTIyEgiIiIs71evXp2NGzfy2muv8cUXX1CpUiXmzp0rUzQIoTFFUYhKjuJ83HkuxF0gIjGCiMQILieogUpByXd7O50d3i7eeDl54eHkgaeTJ55Onng4eeDh6IGHkweu9q64OrhSzq4c5RzK4WrvioPBwertyDBnkJyZTGJGIgnpCerPjATL41baLWJSY7iZepOY1Bhi0mKIT4/HaDZyNekqV5Ou5t1GvR0BbgEElg8k0D2Q6uWrE+geSGD5QDycPKzaDiHEw9Ep2SO8RYElJCTg7u5OfHy8zOQuRCHEpcVxJvYM526d40L8BUuoSs5Mvuc25ezLUdWtKlXcqlCpXCV8y/niV84PPxc/fMv54uXkhUFvKMJWWFeGKYObqTeJSoniWtI1riVd42rSVSKTIy2vM8wZ99zey8mLII8ggj2DCfIIIsgjiBruNbA35D30QQiRN2t9x0vAKgQJWEIU3M3Um5yJPcPpm6c5c1P9eS35Wp7r2unsCHQPpGaFmgSWD6Rq+apUdatKgFsAnk6eZXp8klkxE5UcRXh8OGEJYYTHhxOeEE5YfBjXU67nuY2d3o4a7jWo51WPht4NaeDdgNoetbHXS+gS4l4kYGlIApYQecs0ZxIaG8rR6KMcu3GMozeO3nP8UYBbAMEewdSsUJNaHrWo5V6LauWrSY9LIaRkpnA+7jyht0I5G3uWs7fOcu7WORIzE3Ot66B3oI5XHUvgalKxCZVdK5fp8CrEnSRgaUgClhCqxIxEDl8/zOHowxy7cYxTMadyDPIGdXqDauWrUderLvW96lPXsy51vOpQ3kH+7diSoihEJkfyT+w/nLp5ipMxJzkRc4LEjNyhy8fFh+Y+zWnq25RmPs2o7VEbva5MTpMohAQsLUnAEmVVUkYSh6MPcyDqAH9H/c0/sf9gVsw51invUJ4mPk1oXLExTSo2ob53fcrZl9OoYnEnRVGISIzgZMxJTsac5PiN45y+eRqjYsyxnpuDG818mtHSryWtK7WmdoXa0sMlygwJWBqSgCXKikxTJkdvHGXP1T38HfU3p2+ezjUdQrXy1Wju25wmFZvQ2KcxgeUDpfejBEk1pnLixgkORR/i8HW1J/LuOcI8nTxp5d+KNv5taO3fGn/X3LcUE6K0kIClIQlYojS7kniFvdf28tfVv9gfuZ8UY0qO9wPcAmjp15IWfi14xPcRfMv53mNPoiQymo2ExoZy8PpB9kXu49D1Q7kCV7Xy1WhfuT2PVn6U5n7NcTTIRMyi9JCApSEJWKI0yTRncuT6EbZf3s5fV/8iPCE8x/ueTp60rdSWNpXa0NKvJX7l/LQpVGgi05TJsRvH2Be5j32R+zgZczJHL6aznTOt/FvxaJVH6VC5g/z3IUo8CVgakoAlSrrEjET2XN3D9svb2X11d46BzwadgcYVG9O+cnvaVW5HHc86cspPWCRmJPJ35N/surqL3Vd2cyP1Ro73gz2C6Vy1M12qdiHII0jGbokSRwKWhiRgiZIoJjWGrZe2sjViKweuH8Bovj2w2cPRg44BHelYpSOt/Fvh5uCmYaWipFAUhX9i/2HXlV3surqLEzdO5Jhxv4prFR6v9jhdqnahUcVGEtRFiSABS0MSsERJEZsWy5ZLW/gz/E8OXD+Q44q/6u7VeSzgMToFdKKRd6MSPQu6KB5i02LZdWUXWyO2svfq3hwzz1d0rkjnqp3pHtidZr7NJGyJYksCloYkYIni7FbaLbZGbOWP8D/4O+rvHKGqoXdDulbrSqeATgS6B2pXpCj1UjJT+OvqX2yJ2MLuK7tJykyyvOfr4kuP6j3oUb0HdT3rymlEUaxIwNKQBCxR3CRlJLH50mZ+D/+d/ZH7cwxCru9VnycCn6Brta5UcauiYZWirMowZbA/cj9/hP/B1oitOcJWYPlAS9iq7l5dwyqFUEnA0pAELFEcmMwmQiJDWH9hPdsitpFuSre8V9ezLk8EPkG3wG4EuAVoWKUQOaWb0vnryl/8FvYbu67syvXfbc/qPelVoxcVXSpqWKUoyyRgaUgCltDSuVvnWH9hPb9d/C3HFVzV3avTu0Zvngh8gmrlq2lYoRAFk5SRxPbL29kYtpGQayGWnleDzkD7yu3pW6svHat0lPtTiiIlAUtDErBEUbuZepONYRvZcGEDZ2LPWJZXcKxAj+o96FOzD/W86slYFlFi3Uq7xeZLm9lwYQNHbxy1LPdw9KBXjV70q92PII8g7QoUZYYELA1JwBJFwayY2XdtH2vPrWV7xHbL/eLs9HZ0rNKRJ2s+yaOVH5Xf7kWpExYfxs/nf2bDhQ05emnre9Wnb62+9KjeA3dHdw0rFKWZBCwNScASthSTGsPP539m7dm1XE26alnewKsBT9V6ih6BPajgVEG7AoUoIkazkb3X9vLz+Z/Zfnm7Ze42B70D3QK7MSh4EI0rNpaeW2FVErA0JAFLWJtZMbMvch9rz+bsrXKzd6N3zd70D+ovp0dEmRabFstvF3/jp/M/ce7WOcvyYI9gBtUZRK/qvXCxd9GwQlFaSMDSkAQsYS2xabH8eO5H1p1dx5WkK5bljSs2pn9Qf54IfAJnO2cNKxSieFEUhVM3T7E6dDWbwjZZrkJ0tXflyZpPMih4EDUr1NS4SlGSScDSkAQs8bDO3DzDijMr2BS2yTLbtau9K71rqL1VwZ7BGlcoRPEXnx7Pz+d/Zk3oGiISIyzLW/i2YFCdQXQJ6CJjFMUDk4ClIQlYojCMZiPbIrax4swKDkcftiyv71WfQcGDeCLwCTnFIUQhZJ9iX/3PanZc2WG5e0FF54o8U+cZBgQNkHGLosAkYGlIApZ4EHFpcaw7t45VoauISo4CwE5nR9dqXXmu3nM08m4kg3SFsJKo5CjWnl3LunPriEmNAcDJ4MRTNZ/i+XrPy2zx4r4kYGlIApYoiPO3zvPdme/49eKvlnEink6e9A/qz8CggfiW89W4QiFKr0xTJr+H/863p7/NMXdch8odeKH+C7TyayW/2Ig8ScDSkAQscS+KonDo+iG+OfUNu67ssiyv61mX5+o+R/fq3XE0OGpYoRBli6IoHLx+kOWnl7Pz8k4U1K+8II8gnq/7PL1q9MLB4KBxlaI4kYClIQlY4m4ms4ltl7ex9ORSjsccB0CHji5VuzCk3hCa+jSV35aF0NilhEt8d/o7frnwC6nGVAC8nLx4vt7zDAoehJuDm8YViuJAApaGJGCJbGnGNNZfWM+yU8ssVzE56B3oW6svL9R/Qe4JKEQxFJ8ez7pz6/j+zPdcT7kOqFfxDq4zmOfqPoe3s7fGFQotScDSkAQsEZ8ez+rQ1aw4s4LYtFgAyjuUZ3CdwTxT5xk5QAtRAmSaM9kUtonFJxZzMf4iAI4GR/rW6suw+sOo4lZF4wqFFiRgaUgCVtl1M/Umy04vY/U/q0kxpgDgX86fofWH0q9WP5lmQYgSyKyY2X55O4tPLOZEzAkADDoD3at3Z0SDEdT2qK1xhaIoScDSkASssic6JZpvTn7D2rNrSTOlAeog2eENhtMtsBv2epnMUIiSTlEUDkQdYPHJxey9tteyvGOVjoxqNIqGFRtqWJ0oKhKwNCQBq+y4lnSNJSeX8OO5H8k0ZwLQ0LshoxqN4tEqj8rAdSFKqVM3T7H4xGK2XNpiufKwfeX2vNL4FRpVbKRxdcKWJGBpSAJW6Xc54TJfn/ya9efXW2683MynGaMajaJNpTYSrIQoI8Ljw/n6xNf8evFXTIoJgHaV2jG68Wia+DTRtjhhExKwNCQBq/SKSIhgwbEF/Bb2m+V2G638WzGq0Sge8XtE4+qEEFq5nHCZhScWsuHCBkvQalupLa80fkWCVikjAUtDErBKn6tJV/nq2Fesv7DecvBsX7k9oxqNkoOnEMLicuJlvj6Rs3e7tX9rXmn8Cs18m2lcnbAGCVgakoBVelxPvs6iE4tYd24dRrN6sHy0yqOMaTyG+t71Na5OCFFcXUm8wtcnvuaX879YglYb/zaMazaOBt4NNK5OPAwJWBqSgFXyxaTGsPjEYtaEriHDnAGov4WObTJWeqyEEAV2NekqX5/4mp/P/2z5Ja1L1S682uRVannU0rg6URgSsDQkAavkikuLY8mpJaz6Z5XlVhnNfJrxatNXZYyVEKLQriRe4ctjX/LrxV8xK2Z06OhVoxdjGo8hoHyA1uWJByABS0MSsEqelMwUlp1exrJTy0jOTAagkXcjxjYdSxt/uSpQCGEdF+Iu8MXRL9h8aTMAdjo7+tXux6hGo/At56txdaIgrPUdr7diTZqZP38+1atXx8nJiebNm7N79+57rrtjxw50Ol2uxz///FOEFYuikmnKZOU/K+nxYw/mH51PcmYydT3rMq/zPL7r+R1tK7WVcCWEsJqaFWry2WOfsar3KtpVbodRMfLD2R/o+WNPZh+Ybbm1lij9SnwP1urVqxkyZAjz58+nXbt2fPXVV3z99decPn2aqlWr5lp/x44ddOrUidDQ0BzJtGLFihgMhgJ9pvRgFX9mxcwf4X8w9/BcriRdAaCqW1X+3ezfdKvWDb2uVPxuIYQo5g5dP8Tcw3M5HH0YgHL25RjRYATP13seZztnjasTeZFThFlatWpFs2bN+PLLLy3L6tatS9++fZk5c2au9bMD1q1bt6hQoUKhPlMCVvG299pe5hyaw5nYMwB4OXnxSuNXeDroabmljRCiyCmKwp5re5h7eK7luOTj7MOrTV/lqZpPYdAX7Jd7UTTkFCGQkZHBoUOH6NatW47l3bp1Y+/evffYStW0aVP8/f3p0qUL27dvz3fd9PR0EhIScjxE8XMq5hQv/fkSozaP4kzsGcrZl+PVJq+y8emNDKozSMKVEEITOp2O9pXbs6r3Kj7u8DGVylUiOjWa9/e+T/8N/dl1ZRclvK9D5MFO6wIeRkxMDCaTCV/fnAMHfX19iYqKynMbf39/Fi5cSPPmzUlPT+fbb7+lS5cu7Nixg0cffTTPbWbOnMm0adOsXr+wjmtJ15hzeA6bwjYBYKe3Y3DwYEY2Gomnk6fG1QkhhEqv09OrRi8er/Y4q/5ZxcLjCzkfd56xW8fS0q8lE5tPlPn3SpESfYrw2rVrVK5cmb1799KmTRvL8unTp/Ptt98WeOD6k08+iU6nY/369Xm+n56eTnp6uuV1QkICAQEBcopQY0kZSSw+uZjlp5aTYc6wXBY9tslYqrhV0bo8IYTIV3x6PItPLGbFmRWW+fh6VO/BuKbj5BimIWudIizRPVje3t4YDIZcvVXR0dG5erXy07p1a7777rt7vu/o6Iijo2Oh6xTWZTQb+en8T8w7Ms9yRc4jfo/wRos3qOdVT+PqhBCiYNwd3ZnYYiKD6wxm3pF5/HrxVzaFbWLzpc0MDh7MqEajqOBUQesyRSGV6DFYDg4ONG/enM2bN+dYvnnzZtq2bVvg/Rw5cgR/f39rlydsYO/VvQzYMIAPQj4gNi2WauWr8b9O/2Nxt8USroQQJVIl10rM6DCD1b1X08a/DUazke/OfEfPH3uy7NQyMk2ZWpcoCqFE92ABTJw4kSFDhtCiRQvatGnDwoULiYiIYPTo0QBMnjyZq1evsnz5cgDmzJlDYGAg9evXJyMjg++++45169axbt06LZsh7uNC3AU+Pfgpf139C4DyDuUZ02QMA4MGYm+QwetCiJKvrlddFnZbyN6re/ns0GeE3grl04OfsiZ0DW+0eIPHAh6TeftKkBIfsAYNGsTNmzf54IMPiIyMpEGDBmzcuJFq1aoBEBkZSUREhGX9jIwM3njjDa5evYqzszP169fnt99+o2fPnlo1QeQjNi2W+Ufns/bsWkyKCTudHc/UfYZRjUbh7uiudXlCCGF1bSu3pZV/K9ZfWM//Dv+PiMQIxm0fRyv/Vrz1yFsEeQRpXaIogBI9yF0rMg+W7WWYMlhxZgULjy8kKTMJUG+g+lrz16hWvprG1QkhRNFIzkxm0fFFLD+9nExzJnqdnv61+zO26Vi5StpGZKJRDUnAsq1dV3Yx68AsLiVcAqCuZ13efORNuRmzEKLMupJ4hc8OfWa5x6GrvSujG4/m2TrPyjAJK5OApSEJWLYRkRDBrAOz2HllJwDezt5MaDaBJ2s+Kbe2EUII4GDUQWYdmGWZEb6qW1UZn2VlErA0JAHLulIyU1h0YpF6tYw5Ezu9HUPqDuHlRi/j6uCqdXlCCFGsmMwm1l9Yz9wjc4lJjQGQ8VlWJAFLQxKwrENRFDaFbeI/h/5DdEo0AO0qtePtlm9T3b26xtUJIUTxlpyZzNcnvrZMtmzQGRgUPIixTcdS3kG+mwpLApaGJGA9vNDYUGbsn2G5w3wV1yq89chb0s0thBAP6O7xWZ5OnkxoNoE+tfrI8IpCkIClIQlYhReXFse8o/P44ewPmBUzznbOvNTwJYbWH4qjQWbLF0KIwgq5FsLHf3/MxfiLADT0bsg7rd6hgXcDjSsrWSRgaUgC1oMzK2bWnVvH/w7/j/j0eAC6B3bn9Rav41fOT+PqhBCidMg0Z/L9me/58tiXJGcmo0PH07WfZlyzcTKtQwFJwNKQBKwHc/rmaT7a9xEnYk4AUNujNpNbTpZpF4QQwkZupNxgzuE5rL+wHgA3BzdebfIqA4MHYqcv8XOM25QELA1JwCqYxIxE5h2Zx6rQVZgVM+Xsy/Fqk1cZXGew/AMXQogicCT6CDP2z+Cf2H8A9Rfcd1q+Qwu/FhpXVnxJwNKQBKz8KYrCxrCNfHrwU8slxD0Ce/DmI29S0aWixtUJIUTZYjKbWHduHXOPzLUM0ehRvQdvtHgDHxcfjasrfiRgaUgC1r1djL/IjH0z2B+1H4DA8oG80+od2lRqo3FlQghRtsWlxfH5kc/54ewPKChyVuEeJGBpSAJWbqnGVBYdX8Q3p77BaDbiaHDk5UYvM6z+MBwMDlqXJ4QQIsvpm6eZvm86x2OOA1DHsw7/1/r/aFyxscaVFQ8SsDQkASunnZd3MvPvmVxNugpAh8odmNxqMgFuARpXJoQQIi/ZV3bPOTSHhIwEdOj4V9C/mNBsAu6O7lqXpykJWBqSgKWKSo5ixv4ZbL+8HQC/cn5MajmJzgGdZbJQIYQoAW6m3uS/h/7LLxd+AcDD0YPXmr9WpicplYClobIesExmE6tCVzH38FxSjCnY6ewYUn8IoxuNxsXeRevyhBBCPKBD1w/x0b6POB93HoBmPs14t/W7ZfLehhKwNFSWA1ZobChT907l5M2TADSp2IT327xPbY/aGlcmhBDiYWSaM1lxegXzj80n1ZiKQWdgSL0hvNL4lTL1y7MELA2VxYCVakxlwbEFLDu1DJNiwtXeldeav0b/oP5lthtZCCFKo6jkKD7++2O2RmwFwNfFl0ktJ9GlapcyMfxDApaGylrA2nt1Lx/s+8AyiL1rta5MajlJ5k8RQohSbNeVXczYP6PMXcAkAUtDZSVgxabFMvvAbH69+Cug/hbzbqt36VS1k8aVCSGEKAqpxlS+PvE1S04usUzBM6rRKIbVH4a9wV7r8mxCApaGSnvAUhSF9RfWM/vgbOLT49Gh49m6z/Lvpv+mnH05rcsTQghRxMLiw5i+fzr7I9VJpGtVqMX7bd6nqU9TjSuzPglYGirNAetSwiU+DPnQMhN7kEcQU9tMpWHFhhpXJoQQQkuKovDrxV+ZfWA2t9JvATAgaAATmk+gvEPp+S6UgKWh0hiwMk2ZLD21lAXHFpBhzsDR4MiYJmMYUm8I9vrS2Q0shBDiwcWlxfHZoc/46fxPAHg5eTGp5SSeCHyiVAyCl4ClodIWsE7GnOT9ve9z7tY5ANr4t+G91u8RUL50D2QUQghReAeiDvBByAeEJ4QD0L5ye95t9S5V3KpoW9hDkoClodISsFKNqcw/Op/lp5djVsx4OHrw5iNv0rtG71LxW4gQQgjbyjBlsPjEYhadWESmORMngxNjmozh+XrPl9izHxKwNFQaAtaBqANM3TuViMQIAHpW78mklpPwcPLQuDIhhBAlTVh8GB/u+5ADUQcACPYIZkqbKSVy/K4ELA2V5ICVlJHEnMNzWB26GgAfFx/eb/0+HQM6alyZEEKIkkxRFH658AufHvzUcgX6M3We4d9N/42rg6vW5RWYtb7jrTYFt9FoZMuWLXz11VckJiYCcO3aNZKSkqz1EeIh7b6ym37r+1nCVf+g/vzc52cJV0IIIR6aTqejb62+rO+7nidrPImCwvf/fE+fX/qw9dJWrcsrclbpwbp06RLdu3cnIiKC9PR0zp49S40aNZgwYQJpaWksWLDAGrUWGyWtBysuLY5ZB2ax4eIGAKq4VmFq26m08m+lcWVCCCFKq32R+/gw5EPLUJROAZ14p9U7+JXz07iy/BWrHqzx48fTokULbt26hbOzs2V5v3792Lq17KXW4uTP8D/p80sfNlzcgA4dQ+oNYd1T6yRcCSGEsKnW/q1Z99Q6RjYciZ3eju2Xt9Pn5z6sOLMCk9mkdXk2Z5UeLG9vb/bs2UNwcDBubm4cO3aMGjVqEB4eTr169UhJSbFGrcVGSejBikmNYfq+6WyJ2AJATfeaTGs3jcYVG2tcmRBCiLLm/K3zfLDvA45EHwGgkXcjprSdQpBHkMaV5VaserDMZjMmU+40euXKFdzc3KzxEaKAFEXhl/O/0OfnPmyJ2IKdzo6XG73MmifXSLgSQgihiVoetVjafSnvtX4PV3tXjsccZ9CGQcw9PJd0U7rW5dmEVQJW165dmTNnjuW1TqcjKSmJKVOm0LNnT2t8hCiAqOQoXtn6Cv+35/9IyEigrmddVvVexb+b/hsHg4PW5QkhhCjD9Do9A4MH8nOfn+lStQtGxciiE4vov76/ZXqH0sQqpwivXbtGp06dMBgMnDt3jhYtWnDu3Dm8vb3ZtWsXPj4+1qi12ChupwgVReGn8z8x+8BskjKTcNA7MKbJGIbWH4qd3k7r8oQQQohctlzawoz9M7iRegOAf9X+FxNbTNT8vobFbh6s1NRUVq5cyeHDhzGbzTRr1oznnnsux6D30qI4Bayo5Cimhkxlz9U9ADSq2IgP231IDfcamtYlhBBC3E9CRgJzDs3hh7M/AODt7M07rd7h8aqPa3ZHkWIXsMqS4hCwFEXh5/M/M/vAbBIzE3HQO/Bq01d5od4LGPQGTWoSQgghCuPQ9UNM3TvVcl/DTgGdeLfVu/iW8y3yWopVwFq+fHm+77/wwgsP+xHFitYB63rydaaFTGP31d2AejXGh+0+pEYF6bUSQghRMqWb0ll0fBGLTy7GaDbiau/KhGYTGBA8AL3OavOi31exClgeHjnvX5eZmUlKSgoODg64uLgQGxv7sB9RrGgVsLJvQzDr71mWXquxTcfyQr0XZKyVEEKIUuHcrXNMDZnK8RvHAWjq05QpbaZQs0LNIvn8YjVNw61bt3I8kpKSCA0NpX379qxcudIaH5Gv+fPnU716dZycnGjevDm7d+/Od/2dO3fSvHlznJycqFGjRomYaf568nVe3fYq7+15j8TMRBp6N2TNk2sY3mC4hCshhBClRm2P2izvvpzJLSfjYufCkegj9N/Qny+PfkmGKUPr8grMZn1utWvX5uOPP2b8+PG2+ggAVq9ezYQJE3j33Xc5cuQIHTp0oEePHkREROS5flhYGD179qRDhw4cOXKEd955h3HjxrFu3Tqb1llY2fNa9fulH7uu7MJeb8/4ZuNZ3mN5kaV5IYQQoigZ9Aaerfssv/T9hY5VOmI0G5l/bD4DNgzgaPRRrcsrEJsOcj9y5AgdO3YkISHBVh9Bq1ataNasGV9++aVlWd26denbty8zZ87Mtf7bb7/N+vXrOXPmjGXZ6NGjOXbsGCEhIQX6TJueIrx+GjwCwcGF6JRopoVMY9eVXQA08GrAh+0+pJZHLet+phBCCFFMKYrCH5f+YOb+mcSmxaJDx8AqnZkQNBjXgNZW/zxrfcdb5dzS+vXrc7xWFIXIyEjmzZtHu3btrPERecrIyODQoUNMmjQpx/Ju3bqxd+/ePLcJCQmhW7duOZY98cQTLF68mMzMTOzt7XNtk56eTnr67ZlmbRYY0xLgu3+h2DuyoeXzfBz2I4kZidjr7RnTZAzD6g+T04FCCCFKJbNZIcNkJt1oJt1oIj3z9nMffSvea7yUNRfmERLzJ6uvbGXbpa2sHbgZT9fiefNoq3xb9+3bN8drnU5HxYoV6dy5M//5z3+s8RF5iomJwWQy4eub8zJOX19foqKi8twmKioqz/WNRiMxMTH4+/vn2mbmzJlMmzbNeoXfy61wovXwgX0SO0OXAVDfow4fdZgpvVZCCCFsRlHUcJNhzA41ZtIzTaQb71ymhh41BN0OQBnZ7xnvep15x77ueD8905Rrn+lGdb/5aaw7zyz734lzucE0b0+8MsrjaVd859q0SsAym/P/Q7G1uycjUxQl3wnK8lo/r+XZJk+ezMSJEy2vExISCAgIKGy593TSXs/LvhVIzEzCTlEYcyueF2+ewq7ORZCAJYQQpVJ2uMkRZmwUbu5+P+OO94oTnQ6c7Aw42utxMxh5RVnDIOMvGDATl16BTslDCfdpD07uWpd6TyX6fJO3tzcGgyFXb1V0dHSuXqpsfn5+ea5vZ2eHl5dXnts4Ojri6OhonaLzUc2tOs527ng7VWaiTy/a/v1f7BIuwfcDSK3bn7Qu07Fz9cLeoMfeoMeg12aWWyGEKA3uPCWVkdWDkpn1M8OYc3mG5fmDhJs7em2ye25M5hzvZxTDcAPgYKfH0U6Po50h66deXWZ/+/Wd71vWz3rfwaDH0f7u97O2tb/H8zu2t9Pr1E6PiP3wy1i4eU4trOEAKnT/hDfL5f19XZwUOmDd2aNzP5999llhPyZfDg4ONG/enM2bN9OvXz/L8s2bN9OnT588t2nTpg0bNmzIsezPP/+kRYsWeY6/KkpmkwMXTzyHkunOMAw4MZXX7X5guGETzmfWknz6T/4vcxi/mVsBOvQ6sDOo/yHbGXTY3/Vcfeju+qk+z94ur+f2Bj32eh32dnfvI+dzO4Mua7u8n+dVh+UfjRCiTDGZFTILEWYyjLffzzQpuZbnCEi5ts9nmdGM0Vw8b2Ri63Cjvp8z1NzeRn1f8+N0RjJs/RD2LwAUcPWF3v+FOr20resBFDpgHTlypEDr2fovaeLEiQwZMoQWLVrQpk0bFi5cSEREBKNHjwbU03tXr161zDY/evRo5s2bx8SJExk5ciQhISEsXry4SObruh+zohDoHpD1D99MpsmBucZhbDa34SPdVwTpr/CFw1yeMrXg/zJf5IbiYTlQlCQFDWz5hbuCBr2C7iPfOvR69NJbKDSmKAoms4LRnPXTpGA0m3MuMysYTVnhxZT7eabJTMZdzzMtxxvljmPPHc+NajDKNKvrZmbt02jKWp61/7yeG01K1uebKaZZJgcHgxpGHLJCRl7P7w43eQWW3IEmZ29Njv0Ux3CjtbBdsP7fcCtcfd3kOXhiOjh75LtZcVMq7kU4f/58Zs2aRWRkJA0aNOC///0vjz76KADDhg0jPDycHTt2WNbfuXMnr732GqdOnaJSpUq8/fbblkBWEJrM5G5MR9n1Kfz1GTqzEbOjO0mPTSOxziD14Gk2k5F1IMzruXrQzDpYms1ZB8rs59kH0NvP89tfplE9aBrvse2dB9ni+hvig7LT6+7RM3hH75xBj0PWc4Nepz50OvRZPw367OfksSzruU6HQU8ey+56X6fDTp9z+zu30enUdXQ60JH9U/2FJ8dzQK9X1+GO5fq7tiN7f3nt4679Zf+NK4pyx/PsP0nF8ly5Y3le6yoolp0pdy/Pep29jVlRUBQFsxlMWc9NZnV59sPy2qxgVu5cT32tLleylpO1/Pb6+b1nUhRMpuygY84KOjlf3xmA7g5F2b07OQOU+joz67WplPxbylbQMJPdM295P7uHJq9ts9Z3vM8+HQyGu7bRSbApDtISYMsUOLhEfV2+Cjz5P6j9eJGWUaxulVPWaHovwqiT6vnoyKPq6xqd1P8APaoVbR0FpCiKJQDeHcxyPc/nN+G8nhuzfwPP43lB95PXdve7kkWI4iR7qEB24LbT3w7/DlljWewNeuzt1F8A7PS5n9tn9dTa2z1Yb29BepLt7bKGHGQvl14akZdzW2DDeEi4or5uMRwenwZORX+/32IXsA4cOMAPP/xAREQEGRk5p7L/8ccfrfERxYbWN3vGZIR9X8D2GWBMA/ty8PgUeGSk2h0hHkp2r0Z22HrQ4Jd9asSU1cNh+WlWMGX1lJiye07MOdfL7mXJ7rEwKzl/Zr9vNN+5TyXnPrN6chTU3hW1I0ix9PgoirpcURtr6R1SyN7u9pW1luXKHb1MufaTte87jiTZ353ZPWg5lnF76IDO8n95LL/H9ty1Xvby7B4+vY6sXrzsnj2yluf/3p09f/d6L7unMHtfestrLD2XdwYdu1zL1JBx52uDXoe9Iedru6zX9no9BkPufWa/zq5HiBIr9Rb88S4cXaG+9giEpz6H6o9qVlKxmmh01apVvPDCC3Tr1o3NmzfTrVs3zp07R1RUVI7B58JKDHbQbjwE91LPU0fshU1vwckfoc888K6tdYUlmk6nfsHZGcAZg9blCCFE6fTPb/Dra5B0HdBB61eg8/+BQzmtK7MKq3R3zJgxg//+97/8+uuvODg48L///Y8zZ84wcOBAqlatao2PEHnxrgXDfoNe/wEHV7i8D75sB7v/A6ZMrasTQgghckuOgbXDYdWzarjyqg3D/4DuM0tNuAIrBawLFy7Qq5d66aSjoyPJycnodDpee+01Fi5caI2PEPei18MjL8GYfVDrcTClw9YPYFFniDyudXVCCCGESlHg5Dr4oqX6U6eH9q/B6L+gaiutq7M6qwQsT09PEhMTAahcuTInT54EIC4ujpSUFGt8hLifCgHw3FrouwCcKkDUcVjUSZ1HJDNN6+qEEEKUZYlRsPp5tecq5Sb41IeXtsLjU8HeSevqbOKhAtbRo0cB6NChA5s3bwZg4MCBjB8/npEjR/LMM8/QpUuXhy5SFJBOB02egVcPQL0+YDbC7k/hqw5w+W+tqxNCCFHWKAocXQlftIJ/fgW9HXScBC/vgMrNtK7Oph7qKkK9Xk/Tpk3p27cvL730Ev7+/pjNZj799FP++usvatWqxXvvvYeHR8maHOx+NL+KsKBOr4ffXofkaEAHrUZDl/dK1TluIYQQxVT8FdgwAc6rHTD4N4Y+88GvgaZl3U+xmKYhJCSEJUuWsGbNGjIzM3n66acZMWIEnTp1KnRBJUGJCVgAKbHw5//dvgS2QlV4ci7ULN1/R0IIITSiKHBoKfz5HmQkgsERHpsEbcepV8EXc8UiYGVLTU1lzZo1fPPNN+zevZvAwECGDx/O0KFDqVKlysPuvtgp6B++yWQiM7OYXM13aS9snwlJkerrun2g3Tir3Inc3t4eg0GmMxBCiDIvNgw2jFNvdwNQpaU6fVDFYG3regDFKmDd6cKFC3zzzTcsX76cyMhIunbtysaNG635EZq73x++oihERUURFxdX9MXlRzFDWjykqxckoDOAiwfYuzz0ritUqICfn5/MziyEEGWRyQj7v4Rt08GYCnbO0OV9aDUK9CXrF/BiNdHonWrWrMmkSZMICAjgnXfe4Y8//rD2RxR72eHKx8cHFxeX4hc6MpIhMRJMWTPu2xvAzQ/sHB54V4qikJKSQnR0NAD+/v7WrFQIIURxF3lcnfQ6+xZugR3UW7h51dS0LK1ZNWDt3LmTJUuWsG7dOgwGAwMHDmTEiBHW/Ihiz2QyWcKVl5eX1uXkzckJ3Dwg8bo6yZuSDIlh4FYJynnnvCdJATg7OwMQHR2Nj4+PnC4UQoiyIDMVdn4Ce+aCYlKHnHSbDk2ff+DvkdLooQPW5cuXWbp0KUuXLiUsLIy2bdvy+eefM3DgQMqVK3tXq2WPuXJxefjTbjal00N5f3CuAHGXITNZvclmaqw6EN7e+YF2l93ezMxMCVhCCFHahf8F68dB7AX1dd2noOds9WyIAB4yYHXt2pXt27dTsWJFXnjhBYYPH05wcMkZyGZLxe604L3YO6v3LkyJgYRIyEyBG6Hg6gOufgW+eXSJaa8QQojCS42DLVPUqwRB/Z7o9SnUfVLLqoqlhwpYzs7OrFu3jt69e0uvRUmm00G5imr3bvwVdSB80nX1H1KFAHB007pCIYQQWjuzAX57A5Ki1NfNX1RnYneuoGVVxdZDBaz169dbqw5RHBgcwLOGGqzir6j3Nbx5Hpw9oXzlEjF/iRBCCCtLjIKNb8KZrO98z5rw1FwIbK9tXcWcfGOK3JwrgKOresowJUYdl5WeoIYsZw8ZvCiEEGWBosCRb9XJqtPi1al92o2Hjm+X2vsHWpMELJE3vZ16etDZA+IvgzEN4i5B6i1wrwJ2jlpXKIQQwlZuXoAN4yF8t/rav4k6YahfQ03LKkke6mbPonTp27cvOp2Ozz///PZCR1eoGMx7c5ajq9yMUePfghv/QFK0+tuNEEKI0sNkhL/+C1+2VcOVnbM69cJLWyVcPSAJWMJiyZIlVK1alTfffJMjR45Ylm/dtp0Z/5lLg/r1mTNzijojfMJV9WrDjGQNKxZCCGE1Vw7Cwsdgy1T1rEWNx2BMCLR9VcbgFoIELGHh6enJypUrMZlMDBo0iKSkJKKjo3n++edxcnJi9Zo1OFdpCO4B6rl4YyrEnFXn0TIbtS5fCCFEYaTFw2+vw9ePw/UT4FQB+syHIT+DZ3WtqyuxJJLa2KR1xwm9nqjZ5wf7uvHxvxoVeP22bdvy4YcfMnnyZEaNGsWNGzeIiopi8eLF1KtXT12pnLc6pUPCNXUAfEoMJN6CjAw5bSiEECWFosCpH+H3yerUPACNBkO3j8C1ora1lQISsGws9HoiRyLitC7jgbz99tvs2LGD77//HoBnnnmG4cOH51zJYA8e1cDFU+3BMqZByk34eQx0fUedvFQIIUTxFBsGG9+A81vU1161oNdnUKOjtnWVInKKUOSi0+no16+f5fWECRPuvbKjG/jUUScq1eng6gF1cOS26ep9qoQQQhQfpkzY/RnMb62GK4MDPDYZRu+RcGVlErBELufOneONN97Aw8MDvV7PyJEjSUtLu/cGOr0asNz8oWpbMGXArlkwv83t346EEEJoK2IfLOgAW6epZx0CO8Are+GxSTKvlQ1IwBI5pKenM2jQIJKTk1m9ejWTJ0/m+PHjvPbaa/ffWG8HT/4PBi4Ht0pwKwy++xf8MEydtFQIIUTRS4mF9f+GJU/AjTPg4gX9voKhG2Q4hw3JGCwbC/bV9j5+D/r5b7zxBkeOHGHSpEl07dqVzp07s2PHDhYsWECXLl3o379//jvQ6aBeH6jZGbbPhP0L4NRPcG4LdP4/eOQludxXCCGKgqLA8TXwxzvqxUgATYdA1w/U8bPCpnSKIpd9PaiEhATc3d2Jj4+nfPnyOd5LS0sjLCyM6tWr4+RUsrpcf/75Z/r160ebNm3YtWsXdnZqELp8+TJNmjTBZDJx9OhRAgMDc217z3ZHHodfX4OrB9XXfo2g138goGURtEgIIcqomPPw20QI26m+rlgHev8XqrXVtq4SIL/v+AchpwgFABEREQwfPpwKFSqwcuVKS7gCCAgIYMmSJcTHxzN48GAyMzMLvmP/RjBis/oP28kdoo7D4q7q1YZJ0TZoiRBClGEZybBlmjqIPWwn2DlB5/dg1G4JV0VMerAKobT2YD2MArU76QZsnQpHvlNfO7pDp3fktKEQQjwsRYEzG9Q5rRKuqMtqdYWes8Czhra1lTDSgyVKHteK0OcLGLFFvXFoejz8/jZ81QHC/9K6OiGEKJlizqsXFK0ZooYr96ow+Ht47gcJVxqSgCWKXsAjMHIb9J4Dzh4QfRqW9oK1I9TZ4YUQQtxfRjJs/QC+bAMXtqpzWj36FozdD3V6qRcdCc1IwBLa0BugxYvw78PQYgSgg5Nr4fMW8NccMGZoXaEQQhRP2acDv2gFu/+jzj1YqyuM2Qed3wUHF60rFEjAElpz8YTen8HLO6BKS8hMhi1T1Nngz2/VujohhChebl6AFf1h9fMQf1k9HThohXo60Kum1tWJO0jAEsVDpSYw/A/o+6U6K/zNc/Dd07DqOYi9qHV1QgihrYxk2PphzlvcPPqmejqwbm85HVgMyaVbovjQ66HJs+rYgR0fw/6v4J9f4ewf0PoVePQNdaoHIYQoK8xmOPEDbJkKiVljVGs9Dj1mSY9VMVeie7Bu3brFkCFDcHd3x93dnSFDhhAXF5fvNsOGDUOn0+V4tG7dumgKFgXj5A7dZ6r3yKrZBcyZsHcuzG0GB78Bs0nrCoUQwvauHIIl3eCnl9Vw5RGYdTpwrYSrEqBEB6xnn32Wo0eP8vvvv/P7779z9OhRhgwZct/tunfvTmRkpOWxcePGIqhWPDCfOvD8Onj2B/Cqrd7q4dcJ8NWjcHGn1tUJIYRtJETCT6Ph685w5QA4uEKXKTBGTgeWJCX2FOGZM2f4/fff2bdvH61atQJg0aJFtGnThtDQUIKDg++5raOjI35+fkVVqngYOh0EdYOaneDAYtgxE66fhOVPQXAv6Pah/CYnhCgdMtMgZB7s/ky94AegyXPQ5X1wk++skqbE9mCFhITg7u5uCVcArVu3xt3dnb179+a77Y4dO/Dx8SEoKIiRI0cSHS23bCn2DPbQejSMOwItR4HOAKG/qZcp//EupMZpXaEQQhSOosDpX+CLR2Dbh2q4qtJSnS+w73wJVyVUiQ1YUVFR+Pj45Fru4+NDVFTUPbfr0aMHK1asYNu2bfznP//hwIEDdO7cmfT09Htuk56eTkJCQo6H0IiLp3rrhzEh6kBPc6b6G9/nzdQeLpNR6wqFEKLgok7AsidhzQsQFwFuleDpr2HEn1C5udbViYdQ7ALW1KlTcw1Cv/tx8OBBAHR5nIdWFCXP5dkGDRpEr169aNCgAU8++SSbNm3i7Nmz/Pbbb/fcZubMmZaB9O7u7gQEBDx8Q8XDqRisjs96bi14B0HKTfXO8V+2hdBN6m+EQghRXCVGwfpx6pjS8N3qTZkffQv+fRAaDZBxVqVAsRuD9eqrrzJ48OB81wkMDOT48eNcv34913s3btzA19e3wJ/n7+9PtWrVOHfu3D3XmTx5MhMnTrS8TkhIkJBVXNTuCjUeg4NL1PFZMaGwcjBUawddP4Qq8hugEKIYSU+CvZ+rj+xxVvX7QdcPoEJVbWsTVlXsApa3tzfe3t73Xa9NmzbEx8fz999/07JlSwD2799PfHw8bdu2LfDn3bx5k8uXL+Pv73/PdRwdHXF0dCzwPkURM9hDq1HQaBDsmQP7voRLe9QrcOr3UweIyg1PhRBaMhnh6HewfQYkZXUOVHkEun0EVWWqoNKo2J0iLKi6devSvXt3Ro4cyb59+9i3bx8jR46kd+/eOa4grFOnDj/99BMASUlJvPHGG4SEhBAeHs6OHTt48skn8fb2pl+/flo1pVj4559/0Ol0dO7c+Z7rNGzYEHt7+3zHuGnKuQI8PhX+fUi98gYdnPoJ5rWETZMg+abGBQohyhxFgbN/woL2sGG8Gq48AmHAUhixWcJVKVZiAxbAihUraNiwId26daNbt240atSIb7/9Nsc6oaGhxMfHA2AwGDhx4gR9+vQhKCiIoUOHEhQUREhICG5ublo0odioU6cOnTp1Yvv27Zw9ezbX+3v27OHkyZP06dOn+E9x4V5FvfJm9F+3B8Lv/xLmNlFvjJqRonWFQoiyIPIYLO8D3w+AG2fA2QOemAlj/1Z712WcValW7E4RPghPT0++++67fNdR7hjs7OzszB9//GHrskqsMWPGsH37dhYuXMinn36a472vvvoKgFGjRmlRWuH4NVAHwl/YDpvfh6jjsPUD2L8QOr4JTV8AOwetqxRClDaxYeqY0ONrAEW9b2CrUdDhdTVkiTJBpyhyudWDSkhIwN3dnfj4eMqXL5/jvbS0NMLCwqhevTpOTk6w/t8QfUajSgGfuvDU5wVa1Wg0Uq1aNTIyMrhy5Ypl3NmtW7eoVKkSlStX5ty5c3lepZmr3cWN2Qwn16o3S42PUJd5BMJj70DD/qA3aFqeEKIUSLwOu2bDoaVqzzlAwwHQ+T3wqKZpaaLg8vuOfxAlugerRIg+o97qoASws7Nj5MiRTJs2jR9//JFnnnkGgGXLlpGWlsbLL7+c7xQYxZpeD40GQr0+cHg57JwFt8LVe3z99V/o/H/qTaZLavuEENpJjYM9/4P9CyAzawhCzc7qBTaVmmpamtBOiR6DJaxv5MiR2NnZsXDhQsuyhQsX4uDgwIsvvqhhZVZi5wgtR8L4o+q9vZzc1bERq5+Dr7vAxR1aVyiEKCkyUtRf0P7XCP76TA1XlVvA0A0w5CcJV2Wc9GCJHCpXrsxTTz3Fjz/+SGhoKNevX+fMmTMMHjyYihUral2e9TiUgw4TocVwdT6afV/C1UPqgNTqj6pd+gEtta5SCFEcmTLh8DLYORuSsq6qrlhH7bEK7ik94QKQgCXyMGbMGH788UcWLlxomZKhRA1ufxDOFaDLe+oA1N2fwcHFELYLFndVu/gfmyxBSwihMhnh+Cp1nNWtcHVZharqWM5GA2Usp8hBApat+dQtcZ/fpUsXgoODWbp0KcnJyQQHB/PYY49Zv7bixNUHenwMbcbCzk/g2Eq4sE191OwMHSdB1Vb3348QovQxGeH46qxgFaYuK1dRvbVN86Hq0AMh7iIBy9YKeAVfcTN69Ghee+01oBT3XuWlQgD0mQePvqHOmXX0+9tBq0YntUdLgpYQZYPJCCd+gF2zIPaiuszFC9qNh0deUocaCHEPMk1DITzQNA0l1K1bt/D29sbBwYGrV6/i6emZ7/qlpd253Aq/HbTMRnVZjU7w2CSZgVmI0spkVKd12TkLYi+oy1y8oO04NVg5umpbn7ApmaZB2NSRI0cwm80MGDDgvuGqVPMIVHshO2T3aK2Ai9vVR/WO6kD56h1lUKsQpYHJCCfXqT1WN8+ry5w9od04eGSkBCvxQCRgiTzNmjULgFdffVXjSooJj2rw1Fx1Jua/PoMj30HYTvVRuTm0fw2Ce6nzbQkhSpbMNPWXp71zbw9ed/aEtv+Gli9LsBKFIgFLWBw/fpxffvmFQ4cO8ccff9CnTx9atpQr6HLwqAZP/k8NWns/VyctvXoIVj8P3sHQfoI6c7PBXutKhRD3k54IB5dAyBfqTZhBPRXYZmxWsCrb96gVD0cClrA4fPgw77//PuXLl2fQoEHMnz9f65KKrwpVoeds9Sqi/Qvg70UQEwo/vwLbpqu/+TZ7ARxctK5UCHG35JtZ/26/grR4dVn5KvLvVliVDHIvhLIwyP1BldV2W6Ql3P5NODlaXebiBa1Gq4NiXcrwODYhiov4K7B3njpJaPYtbbxqZ/U8D5SbvwtABrkLUbw4lVcP0q1Gq2M59vwP4i7B9unqBKaNB0PrMVAxSOtKhSh7Io/DvvlwYu3tmzD7N1EvUqnTWyYIFTYhAUsIa7J3gkdGQLOhcOonCPkcIo/BoW/UR+1uatCq8ZhceSiELZnNcO5PCJkH4btvLw/soF6UUrOz/BsUNiUBSwhbMNhBowHQsD9c2gMh8yF0o3rAP/cn+NSHNmPUAfEyC7QQ1pORrN6JYd+Xt6da0Bmgfj/131zl5trWJ8oMCVhC2JJOB4Ht1cfNC7D/K3WKh+hT8MtY2DJVHaPV/EVw89W6WiFKroRIOLBIHQuZektd5uiu3sqm1Shwr6JtfaLMkYAlRFHxqgk9Z0Gnyer0DvsXQsIV2DFTvcdZ3afU04vV2smpCyEKQlEgYh8c+BpO/3J7fJVHoHoqvsmzMtWC0IwELCGKmrOHei+z1mPgzHrYtwCu/A2nflQfFetAixHQeBA4uWtdrRDFT3qievPlA4sh+vTt5VXbqqcBg3vKwHWhOQlYQmjFYA8N/qU+Io/DwcVw/Ae48Q9selM9fdhooNqr5ddQ62qF0N71U2qoOr4aMpLUZXbO6ljHR0ZApaba1ifEHSRgCVEc+DdSZ4jv+gEcX6Oe8rjxz+2rDwNaQfNhUK8POJTTulohio4xHc5sUP9NRITcXu5VWw1VjQervcJCFDMSsIQoTpzcoeVIdeD7pb3ql8qZ9XB5v/rY+KZ6NVTT59XQJWO1RGkVeVydU+74GkiNVZfpDFCnl/rvo/qj8t+/KNYkYAlRHOl0ENhOfSRehyPfql82sRfV50e+Ba9a6iDexs9A+UpaVyzEw0uJhRM/qFfaRh2/vdzNX+3BbfaC/LcuSgwJWMIiMDCQS5cu3fP9oUOHsnTp0qIrSKjcfOHRN9QbTEfsU798Tv2kzvGz9QPY9hHU7AJNn1MH98q8WqIkMRnhwjY4+h2EbgJThrrc4ADBPaDJ8+qkoAb5uhIli/wXKywmTJhAXFxcruUbNmzg8OHDuLjIDVA1pdNBtTbqo8cn6mXpR76DiL1wfrP6cKoA9Z5SJzCt1k6upBLFk6LA9ZNqb9XxNZAYefs9v0bqKfCGA+QenqJEk5s9F0JZutnz5s2b6dmzJ4GBgYSEhODt7Z3neqWt3SXKzQtw9Hv1kXjt9nI3f/UKxYb91fuuyXgVobXYi3BiHZxcq17Ekc3ZExoNUnth5YpZoTFr3exZAlYhPEjAmrp3KufizmlUKdSuUJupbacWatuTJ0/Srl077O3tCQkJoXbt2vdcVwJWMWA2qQPjT/yg9m6lxd1+z7MmNHhavQrRt4GELVF0EiLVU9onfoBrh28vNzhC7a5qsArqDnYO2tUoxB2sFbDkFKGNnYs7x/Ebx++/YjETGRlJr169SE9P59dff803XIliQm+A6h3UR8/ZcH6r2lPwz0aIvaDOFr9rNnhUV08j1u0DlZtJ2BLWdytcnVrhzAb16tdsOr16o/MG/aFub5lIV5RqErBELsnJyfTu3ZvLly+zYsUKOnTooHVJ4kHZOUKdnuojPUm90fTpX+D8FrgVBnv+pz7KV4G6T6qXvldtrU5+KkRh3AiF0+vVaUWi7vqlskpLdUxV/b7g6qNJeUIUNQlYIgez2cwzzzzD4cOHmT59Os8884zWJYmH5eiqzgjfaKAats5vVr8Iz/2p3gtx/5fqw8kdaj0OQT2gVhcZYCzyZ8xQJ/489yec/V29qjWbTq9eZFH3KbWnSqZWEGWQBCyRw4QJE9iwYQPDhw/nnXfe0bocYW2OrupEpfX7QWYqXNiu9jic+xNSbsLJdepDp4eA1hD0hDpOxqeenEoUkHRDDehnf1f/20lPuP2e3h5qdlJ7RIN7Qrm8L4gRoqyQgGVjtStoO3bpQT5/zpw5fP7553Tp0oUFCxbYsCpRLNg73z6NaDbBlYPqF+fZPyD6lDr9Q8Re2DIFXH3VsTM1Oqlfom5+WlcvikJmmjqG6uIOuLgdrh0F7rguysUbandTg3jNTjKmSog7yFWEhVAap2mIioqicuXKKIrC+PHjcXfPfaBs0qQJffv2zXP7ktpucQ+3Lt0+9RO+B4ypOd/3qaeGreod1LFbci+40sFsVsdPXdyhPiJCwJiWcx3/xupVf7WfUG+urNdrUakQNiNXEQqrSktLw2w2A2pPVl6GDh16z4AlShmPauo9EVuOVG+2e3m/Otv2he0QeQyiT6uPfV8AOvCtD9XaZj3ayUDmksKYDteOqNN7RIRAxH5Ij8+5jquf2jtV4zH1Ib2XQhSIBCwBqLfJkc5MkSc7R/XGutUfhcenQvJNCNup9nBc2gs3z6mzcl8/CX8vVLfxqqVeOValOVRuoQYwuUJRe0nRcPUwXPkbLoXA1UNgSs+5joMrBHa4HagqBsv4OyEKQQKWEOLBlPNSJy1t8LT6OvG6OlbrUtbj+in1irKb5+HY9+o6dk7qbPJVWqhzb/k1Bs8acnrJltISIPKoGqiuHlJ7quIv517PxVu9/VLVrIdfI7nvnxBWIP+KhBAPx8339pWJACmxcPlv9Uv96kH1Z1o8XN6nPrLZlwPfeurM8n4N1YdPPfVKR1FwZrM6t9n1U+ojOutnbBg5BqQDoAPvIKjcXB07V62t2tsoPVRCWF2JDljTp0/nt99+4+jRozg4OOR5o+K7KYrCtGnTWLhwIbdu3aJVq1Z88cUX1K9f3/YFC1EWuHhCcHf1AWoAiL2gXqV49aDaoxJ9BjKT4coB9XEn9wDwrq0GAa9a6k/vIHXsT1kOAhnJ6r38snsHb16AmLNZf5YpeW/jHqD2GFZqpoYq/8bgVPhBu0KIgivRASsjI4MBAwbQpk0bFi9eXKBtZs2axWeffcbSpUsJCgrio48+omvXroSGhuLm5mbjioUog/T6rMBUG5pkTVxrNqkBIeq4OnYr6iREnYCkKPU0VvxldVD9nRxcoULVrEe1O55nPZw9SnYAy0yDhKtZ7b+iPuIuQ9wlNVglXL33tnZOULGO2hvoW08d8+ZTH1wrFl39QogcSnTAmjZtGgBLly4t0PqKojBnzhzeffddnn5aHT+ybNkyfH19+f777xk1apStShVC3ElvgIpB6qNh/9vLU2Ih5pzaMxNz9vbzW+GQkXT76sU892mvztfl5qv+zH6U81bDl1MFdZ4m5wq3n9vqBsNmM2QkquOg0hMgPet58o3bj6Tou55H33+/zh7gVVvt2fOqqf70rZ81ns1gm7YIIQqlRAesBxUWFkZUVBTdunWzLHN0dKRjx47s3bv3ngErPT2d9PTbV9okJCTkuZ4Q4iG5eELVVurjTsYMtScn7hLERaiPW3c8T44Gc6Z665+EKwX/PIMj2DuBnbN6taS9s9obZO8MerusHjFd7p9mI5gy1GkO7vxpylBvR5SRWLj22zlDhQBwr5L1qKr+zA5TcvsiIUqMMhWwoqKiAPD19c2x3NfXl0uXLt1zu5kzZ1p6ywqqrE15UNbaK4qYncPt04x5MaarvUBJ0eppxqTr6vPEKEiJgdQ4daB9Whykxt+e68mUnjVNQXze+31YBgdwLA+OburYJxdvKFdRPXVXriKU87n9vHwVNUCV5NOcQgiLYhewpk6det8wc+DAAVq0aFHoz9DddQBTFCXXsjtNnjyZiRMnWl4nJCQQEBCQ57r29upcPykpKTg7Oxe6xpImJUUdZJvdfiGKlJ2j2vNTIe9/l7mYTVmn7pLUmcozU9WQZkxVx0IZU8GUqa6rKICS86feTg19Bsesn3c8d3C9Hars5a4GQpRVxS5gvfrqqwwePDjfdQIDAwu1bz8/dQbiqKgo/P39Lcujo6Nz9WrdydHREUdHxwJ9hsFgoEKFCkRHq+MpXFxc8g1vJZ2iKKSkpBAdHU2FChUwGGQciCgB9AZ1PJPc4kcIYSPFLmB5e3vj7W2bu7BXr14dPz8/Nm/eTNOmTQH1SsSdO3fyySefWO1zsoNcdsgqCypUqGBptxBCCFHWFbuA9SAiIiKIjY0lIiICk8nE0aNHAahVqxaurupkhXXq1GHmzJn069cPnU7HhAkTmDFjBrVr16Z27drMmDEDFxcXnn32WavVpdPp8Pf3x8fHh8zMTKvtt7iyt7eXnishhBDiDiU6YL3//vssW7bM8jq7V2r79u089thjAISGhhIff3sA61tvvUVqaipjxoyxTDT6559/2mQOLIPBIMFDCCGEKIN0ilz+9cASEhJwd3cnPj6e8uVlVmQhhBCitLDWd7zcaVUIIYQQwsokYAkhhBBCWFmJHoOlleyzqjKjuxBCCFG6ZH+3P+wIKglYhZCYqN4G416TjQohhBCiZEtMTMTd3b3Q28sg90Iwm81cu3YNNzc3q08imj1L/OXLl0v1APqy0k4oO20tK+2EstPWstJOKDttlXben6IoJCYmUqlSJfT6wo+kkh6sQtDr9VSpUsWmn1G+fPlS/R9/trLSTig7bS0r7YSy09ay0k4oO22VdubvYXqusskgdyGEEEIIK5OAJYQQQghhZRKwihlHR0emTJlS4JtLl1RlpZ1QdtpaVtoJZaetZaWdUHbaKu0sOjLIXQghhBDCyqQHSwghhBDCyiRgCSGEEEJYmQQsIYQQQggrk4BlY/Pnz6d69eo4OTnRvHlzdu/ene/6O3fupHnz5jg5OVGjRg0WLFiQa51169ZRr149HB0dqVevHj/99JOtyn8g1m7rokWL6NChAx4eHnh4ePD444/z999/27IJBWKLv9Nsq1atQqfT0bdvXytXXTi2aGtcXBxjx47F398fJycn6taty8aNG23VhAKxRTvnzJlDcHAwzs7OBAQE8Nprr5GWlmarJhTIg7QzMjKSZ599luDgYPR6PRMmTMhzvdJwPCpIW0vD8aigf6fZSvLxqKBttenxSBE2s2rVKsXe3l5ZtGiRcvr0aWX8+PFKuXLllEuXLuW5/sWLFxUXFxdl/PjxyunTp5VFixYp9vb2ytq1ay3r7N27VzEYDMqMGTOUM2fOKDNmzFDs7OyUffv2FVWz8mSLtj777LPKF198oRw5ckQ5c+aM8uKLLyru7u7KlStXiqpZudiindnCw8OVypUrKx06dFD69Olj45bcny3amp6errRo0ULp2bOn8tdffynh4eHK7t27laNHjxZVs3KxRTu/++47xdHRUVmxYoUSFham/PHHH4q/v78yYcKEompWLg/azrCwMGXcuHHKsmXLlCZNmijjx4/PtU5pOR4VpK2l4XhUkHZmK+nHo4K01dbHIwlYNtSyZUtl9OjROZbVqVNHmTRpUp7rv/XWW0qdOnVyLBs1apTSunVry+uBAwcq3bt3z7HOE088oQwePNhKVReOLdp6N6PRqLi5uSnLli17+IILyVbtNBqNSrt27ZSvv/5aGTp0aLE4oNmirV9++aVSo0YNJSMjw/oFF5It2jl27Filc+fOOdaZOHGi0r59eytV/eAetJ136tixY55fUKXleHSne7X1biXxeHSn/NpZGo5Hd7pXW219PJJThDaSkZHBoUOH6NatW47l3bp1Y+/evXluExISkmv9J554goMHD5KZmZnvOvfaZ1GwVVvvlpKSQmZmJp6entYp/AHZsp0ffPABFStWZMSIEdYvvBBs1db169fTpk0bxo4di6+vLw0aNGDGjBmYTCbbNOQ+bNXO9u3bc+jQIcsppIsXL7Jx40Z69eplg1bcX2HaWRCl5XhUGCXxeFRQpeF4VBC2Ph7JvQhtJCYmBpPJhK+vb47lvr6+REVF5blNVFRUnusbjUZiYmLw9/e/5zr32mdRsFVb7zZp0iQqV67M448/br3iH4Ct2rlnzx4WL17M0aNHbVX6A7NVWy9evMi2bdt47rnn2LhxI+fOnWPs2LEYjUbef/99m7XnXmzVzsGDB3Pjxg3at2+PoigYjUZeeeUVJk2aZLO25Kcw7SyI0nI8KoySeDwqiNJyPCoIWx+PJGDZmE6ny/FaUZRcy+63/t3LH3SfRcUWbc02a9YsVq5cyY4dO3BycrJCtYVnzXYmJiby/PPPs2jRIry9va1f7EOy9t+p2WzGx8eHhQsXYjAYaN68OdeuXWP27NmaBKxs1m7njh07mD59OvPnz6dVq1acP3+e8ePH4+/vz3vvvWfl6gvOFseO0nI8ehAl+XiUn9J2PLofWx+PJGDZiLe3NwaDIVe6jo6OzpXCs/n5+eW5vp2dHV5eXvmuc699FgVbtTXbp59+yowZM9iyZQuNGjWybvEPwBbtPHXqFOHh4Tz55JOW981mMwB2dnaEhoZSs2ZNK7fk/mz1d+rv74+9vT0Gg8GyTt26dYmKiiIjIwMHBwcrtyR/tmrne++9x5AhQ3jppZcAaNiwIcnJybz88su8++676PVFOzqjMO0siNJyPHoQJfl4dD8XLlwoNcejgrD18UjGYNmIg4MDzZs3Z/PmzTmWb968mbZt2+a5TZs2bXKt/+eff9KiRQvs7e3zXede+ywKtmorwOzZs/nwww/5/fffadGihfWLfwC2aGedOnU4ceIER48etTyeeuopOnXqxNGjRwkICLBZe/Jjq7/Tdu3acf78ectBG+Ds2bP4+/sXebgC27UzJSUlV4gyGAwo6oVFVmxBwRSmnQVRWo5HBVXSj0f3U5qORwVh8+ORTYbOC0VRbl9WunjxYuX06dPKhAkTlHLlyinh4eGKoijKpEmTlCFDhljWz778+7XXXlNOnz6tLF68ONfl33v27FEMBoPy8ccfK2fOnFE+/vjjYnVZtDXb+sknnygODg7K2rVrlcjISMsjMTGxyNuXzRbtvFtxuWrHFm2NiIhQXF1dlVdffVUJDQ1Vfv31V8XHx0f56KOPirx92WzRzilTpihubm7KypUrlYsXLyp//vmnUrNmTWXgwIFF3r5sD9pORVGUI0eOKEeOHFGaN2+uPPvss8qRI0eUU6dOWd4vLccjRbl/W0vD8UhR7t/Ou5XU45Gi3L+ttj4eScCysS+++EKpVq2a4uDgoDRr1kzZuXOn5b2hQ4cqHTt2zLH+jh07lKZNmyoODg5KYGCg8uWXX+ba5w8//KAEBwcr9vb2Sp06dZR169bZuhkFYu22VqtWTQFyPaZMmVIErbk3W/yd3qm4HNAUxTZt3bt3r9KqVSvF0dFRqVGjhjJ9+nTFaDTauin5snY7MzMzlalTpyo1a9ZUnJyclICAAGXMmDHKrVu3iqA19/ag7czr31+1atVyrFNajkf3a2tpOR4V5O/0TiX5eFSQttryeKTLKkIIIYQQQliJjMESQgghhLAyCVhCCCGEEFYmAUsIIYQQwsokYAkhhBBCWJkELCGEEEIIK5OAJYQQQghhZRKwhBBCCCGsTAKWEEIIIYSVScASQpR5U6dOpUmTJlqXIYQoRWQmdyFEqabT6fJ9f+jQocybN4/09HS8vLyKqCohRGknAUsIUapFRUVZnq9evZr333+f0NBQyzJnZ2fc3d21KE0IUYrJKUIhRKnm5+dnebi7u6PT6XItu/sU4bBhw+jbty8zZszA19eXChUqMG3aNIxGI2+++Saenp5UqVKFJUuW5Pisq1evMmjQIDw8PPDy8qJPnz6Eh4cXbYOFEMWCBCwhhMjDtm3buHbtGrt27eKzzz5j6tSp9O7dGw8PD/bv38/o0aMZPXo0ly9fBiAlJYVOnTrh6urKrl27+Ouvv3B1daV79+5kZGRo3BohRFGTgCWEEHnw9PRk7ty5BAcHM3z4cIKDg0lJSeGdd96hdu3aTJ48GQcHB/bs2QPAqlWr0Ov1fP311zRs2JC6devyzTffEBERwY4dO7RtjBCiyNlpXYAQQhRH9evXR6+//Tuor68vDRo0sLw2GAx4eXkRHR0NwKFDhzh//jxubm459pOWlsaFCxeKpmghRLEhAUsIIfJgb2+f47VOp8tzmdlsBsBsNtO8eXNWrFiRa18VK1a0XaFCiGJJApYQQlhBs2bNWL16NT4+PpQvX17rcoQQGpMxWEIIYQXPPfcc3t7e9OnTh927dxMWFsbOnTsZP348V65c0bo8IUQRk4AlhBBW4OLiwq5du6hatSpPP/00devWZfjw4aSmpkqPlhBlkEw0KoQQQghhZdKDJYQQQghhZRKwhBBCCCGsTAKWEEIIIYSVScASQgghhLAyCVhCCCGEEFYmAUsIIYQQwsokYAkhhBBCWJkELCGEEEIIK5OAJYQQQghhZRKwhBBCCCGsTAKWEEIIIYSVScASQgghhLAyCVhCCCGEEFYmAUsIIYQQwsokYAkhhBBCWJkELCGEEEIIK5OAJYQQQghhZf8P7YdH2ueE6kEAAAAASUVORK5CYII=;" vertex="1" parent="1">
          <mxGeometry y="290" width="600" height="300" as="geometry" />
        </mxCell>
      </root>
    </mxGraphModel>
  </diagram>
</mxfile>
